<svg width="385" height="339" viewBox="0 0 385 339" fill="none" xmlns="http://www.w3.org/2000/svg">
<g clip-path="url(#clip0_3_463)">
<path d="M154.091 250.058L350.499 200.63C350.499 200.63 348.494 197.15 334.763 201.765L156.889 249.382L154.091 250.058Z" stroke="#BC986D" stroke-width="0.5" stroke-miterlimit="10"/>
<path d="M153.632 249.221L334.491 158.207C334.491 158.207 331.788 155.242 319.389 162.704L153.632 249.221Z" stroke="#BC986D" stroke-width="0.5" stroke-miterlimit="10"/>
<path d="M152.706 248.19L308.774 118.101C308.774 118.101 305.452 115.848 295.092 125.933L155.306 245.818L152.706 248.19Z" stroke="#BC986D" stroke-width="0.5" stroke-miterlimit="10"/>
<path d="M152.094 247.258L275.641 85.272C275.641 85.272 271.893 83.8094 264.055 95.9772L154.627 244.116L152.082 247.285L152.094 247.258Z" stroke="#BC986D" stroke-width="0.5" stroke-miterlimit="10"/>
<path d="M151.552 246.387L237.695 66.2568C237.695 66.2568 233.748 65.5829 228.499 79.0535L151.229 246.543L151.536 246.348L151.552 246.387Z" stroke="#BC986D" stroke-width="0.5" stroke-miterlimit="10"/>
<path d="M150.418 246.012L195.512 51.6109C195.512 51.6109 191.492 51.8105 189.291 66.0976L150.049 246.278L150.39 246L150.418 246.012Z" stroke="#BC986D" stroke-width="0.5" stroke-miterlimit="10"/>
<path d="M149.352 247.021L149.197 45.5752C149.197 45.5752 145.347 46.6847 146.442 61.1166L149.056 245.251L149.352 247.021Z" stroke="#BC986D" stroke-width="0.5" stroke-miterlimit="10"/>
<path d="M148.821 247.445L103.312 50.1437C103.312 50.1437 99.7988 52.0713 104.084 65.8938L148.821 247.445Z" stroke="#BC986D" stroke-width="0.5" stroke-miterlimit="10"/>
<path d="M147.764 247.425L63.9556 64.3038C63.9556 64.3038 60.9038 66.9074 67.8999 79.5661L146.833 245.94L147.764 247.425Z" stroke="#BC986D" stroke-width="0.5" stroke-miterlimit="10"/>
<path d="M153.719 251.807C152.454 253.992 149.661 254.734 147.476 253.47C145.291 252.206 144.55 249.412 145.814 247.227C147.078 245.042 149.872 244.299 152.056 245.564C154.241 246.828 154.983 249.622 153.719 251.807Z" fill="#BC986D"/>
<path d="M153.902 49.082C155.756 47.1095 158.611 46.2963 161.229 47.0627C164.965 48.1653 167.153 51.9808 166.277 55.7155L166.777 55.988C167.83 51.907 165.442 47.7181 161.391 46.517C158.542 45.6866 155.398 46.5733 153.414 48.782L153.914 49.0545L153.902 49.082Z" fill="#BC986D"/>
<path d="M170.619 57.07C170.843 56.0659 170.934 55.0709 170.92 54.0967C170.943 54.0417 170.911 53.9638 170.906 53.8973C170.879 53.111 170.757 52.318 170.557 51.557C170.504 51.3737 170.479 51.2018 170.426 51.0184C170.325 50.7182 170.224 50.4179 170.123 50.1177C169.845 49.3889 169.49 48.6922 169.056 48.0277C168.488 47.1455 167.774 46.3001 166.977 45.5807C166.25 44.9233 165.422 44.353 164.521 43.8813C163.62 43.4096 162.662 43.0755 161.724 42.8468C160.665 42.5999 159.577 42.502 158.525 42.5484C157.739 42.5764 156.946 42.6984 156.185 42.8983C155.713 43.0246 155.229 43.1785 154.773 43.3438C154.044 43.6216 153.348 43.9773 152.683 44.411C152.415 44.5899 152.147 44.7689 151.907 44.9593C151.297 45.4158 150.759 45.9342 150.236 46.4916L152.148 47.4807C152.286 47.538 152.423 47.5952 152.584 47.5974C152.976 47.6636 153.381 47.5419 153.7 47.3193C154.371 46.7917 155.13 46.3649 155.925 46.0825C156.236 45.9539 156.564 45.8643 156.853 45.7908C157.969 45.5127 159.138 45.4181 160.298 45.5778C161.27 45.724 162.251 46.003 163.179 46.4862C164.108 46.9693 164.912 47.5946 165.589 48.2957C165.676 48.3965 165.763 48.4973 165.85 48.5981C166.52 49.3932 167.05 50.2914 167.408 51.215C167.536 51.5267 167.637 51.827 167.699 52.1433C167.878 52.7988 167.963 53.4474 167.97 54.1283C167.968 54.2887 167.966 54.4492 167.964 54.6097C167.941 54.6647 167.957 54.7036 167.962 54.7701C167.973 55.13 168.106 55.5082 168.379 55.7831C168.494 55.8953 168.608 56.0076 168.773 56.0763L170.658 57.054L170.619 57.07Z" fill="#BC986D"/>
<path d="M175.067 56.6937C175.227 53.9841 176.915 51.5555 179.431 50.472C183.01 48.9272 187.139 50.4835 188.834 53.9325L189.4 53.8129C187.627 50.0087 183.113 48.2921 179.222 49.9656C176.472 51.1455 174.642 53.8377 174.529 56.8247L175.095 56.7052L175.067 56.6937Z" fill="#BC986D"/>
<path d="M193.053 52.1693C192.589 51.2664 192.037 50.4232 191.372 49.6946C191.328 49.6442 191.284 49.5938 191.241 49.5434C190.707 48.9661 190.122 48.4323 189.475 47.9696C189.322 47.8734 189.18 47.7497 189.026 47.6535C188.774 47.4841 188.494 47.3031 188.23 47.1612C187.55 46.781 186.818 46.4445 186.069 46.2295C185.044 45.9 183.99 45.7195 182.906 45.6881C181.927 45.6359 180.918 45.7328 179.919 45.9626C178.92 46.1925 177.98 46.5117 177.089 46.9477C176.108 47.4435 175.242 48.0514 174.463 48.7602C173.886 49.2947 173.352 49.8796 172.889 50.5263C172.596 50.9207 172.319 51.3541 172.081 51.7715C171.701 52.4525 171.392 53.1954 171.149 53.9337C171.023 54.2364 170.964 54.5344 170.904 54.8324C170.728 55.5661 170.634 56.3341 170.607 57.0974L172.7 56.6446C172.7 56.6446 173 56.5436 173.128 56.4679C173.474 56.2568 173.705 55.9334 173.799 55.5528C173.994 54.6977 174.314 53.9272 174.729 53.1636C174.882 52.8724 175.063 52.5927 175.272 52.3243C175.954 51.3818 176.806 50.5744 177.805 49.9571C178.637 49.4317 179.572 49.046 180.599 48.8276C181.626 48.6093 182.639 48.5789 183.594 48.686C183.716 48.7043 183.865 48.734 183.986 48.7523C185.013 48.9213 185.988 49.2944 186.877 49.7936C187.168 49.947 187.448 50.1279 187.716 50.3364C188.264 50.7257 188.75 51.1862 189.186 51.6903C189.301 51.8025 189.376 51.9308 189.491 52.0431C189.546 52.066 189.551 52.1325 189.594 52.1829C189.828 52.4738 190.174 52.6502 190.55 52.6774C190.699 52.7071 190.871 52.6818 191.043 52.6565L193.108 52.1922L193.053 52.1693Z" fill="#BC986D"/>
<path d="M199.371 55.4437C201.495 53.9066 204.364 53.6802 206.733 54.8915C210.084 56.6087 211.461 60.6676 209.92 64.0612L210.358 64.4048C212.119 60.7154 210.636 56.2898 206.978 54.3801C204.401 53.0498 201.254 53.3222 198.945 55.0726L199.382 55.4162L199.371 55.4437Z" fill="#BC986D"/>
<path d="M213.82 66.1678C214.197 65.2598 214.493 64.3175 214.655 63.3844C214.678 63.3294 214.673 63.2629 214.68 63.1689C214.801 62.4124 214.828 61.649 214.789 60.8903C214.764 60.7184 214.777 60.5304 214.752 60.3585C214.718 60.0536 214.683 59.7488 214.61 59.46C214.476 58.6944 214.265 57.961 213.976 57.2597C213.602 56.2971 213.084 55.3714 212.453 54.5602C211.866 53.7995 211.19 53.0985 210.412 52.4846C209.635 51.8707 208.812 51.3669 207.943 50.9731C206.98 50.5725 205.983 50.2545 204.945 50.113C204.188 49.992 203.425 49.9649 202.667 50.0043C202.174 50.0252 201.697 50.0851 201.236 50.184C200.499 50.3288 199.738 50.5287 199.036 50.818C198.764 50.9305 198.48 51.0705 198.207 51.1829C197.561 51.4951 196.919 51.8737 196.337 52.3417L197.963 53.6313C197.963 53.6313 198.215 53.8008 198.364 53.8305C198.722 53.9793 199.132 53.924 199.455 53.7679C200.218 53.4076 201.002 53.1527 201.806 53.0032C202.122 52.9411 202.455 52.918 202.76 52.8834C203.878 52.8323 205.01 52.9807 206.09 53.333C206.993 53.6443 207.867 54.1045 208.671 54.7298C209.476 55.3552 210.102 56.0998 210.639 56.9041C210.715 57.0324 210.774 57.1218 210.822 57.2387C211.325 58.1255 211.644 59.0652 211.818 60.0416C211.88 60.3579 211.903 60.6903 211.938 60.9951C211.995 61.6324 211.948 62.2903 211.845 62.9253C211.815 63.0743 211.785 63.2234 211.756 63.3724C211.733 63.4274 211.71 63.4824 211.698 63.51C211.643 63.8745 211.722 64.2297 211.917 64.5368C211.992 64.6651 212.107 64.7774 212.222 64.8896L213.82 66.1678Z" fill="#BC986D"/>
<path d="M218.113 66.6306C218.79 64.072 220.843 62.0856 223.435 61.5178C227.131 60.6996 230.774 62.9576 231.759 66.5629L232.307 66.5649C231.31 62.5997 227.333 60.1378 223.32 61.0182C220.478 61.6434 218.24 63.8431 217.581 66.6676L218.129 66.6696L218.113 66.6306Z" fill="#BC986D"/>
<path d="M236.093 65.6869C235.84 64.7426 235.443 63.8351 234.946 63.0147C234.914 62.9368 234.87 62.8864 234.826 62.836C234.42 62.1829 233.964 61.5734 233.457 61.0075C233.343 60.8952 233.212 60.744 233.097 60.6318C232.896 60.4187 232.655 60.2217 232.414 60.0247C231.845 59.5299 231.187 59.0947 230.534 58.7261C229.645 58.2269 228.643 57.8424 227.639 57.6183C226.701 57.3896 225.745 57.2825 224.732 57.3129C223.747 57.3547 222.766 57.463 221.849 57.7272C220.827 58.012 219.881 58.4252 218.983 58.9553C218.33 59.3614 217.72 59.818 217.154 60.3249C216.79 60.6575 216.453 61.0016 216.171 61.3685C215.677 61.9373 215.241 62.5955 214.873 63.249C214.731 63.5127 214.589 63.7764 214.463 64.0791C214.177 64.7669 213.902 65.4273 213.753 66.1724L215.834 66.1345C215.834 66.1345 216.139 66.0999 216.256 66.0517C216.607 65.9071 216.909 65.6456 217.058 65.2879C217.378 64.5175 217.864 63.8157 218.382 63.1919C218.579 62.9511 218.803 62.7217 219.055 62.5038C219.857 61.74 220.817 61.1388 221.896 60.7164C222.781 60.3743 223.769 60.172 224.77 60.1691C225.783 60.1387 226.755 60.2848 227.658 60.596C227.768 60.6418 227.906 60.699 228.016 60.7448C228.963 61.1064 229.813 61.6217 230.579 62.2631C230.82 62.4601 231.049 62.6846 231.267 62.9367C231.714 63.4132 232.083 63.9219 232.43 64.4856C232.505 64.6139 232.581 64.7422 232.645 64.8981C232.661 64.937 232.705 64.9874 232.721 65.0264C232.889 65.322 233.173 65.5694 233.542 65.6907C233.679 65.7479 233.84 65.7501 234 65.7523L236.054 65.7029L236.093 65.6869Z" fill="#BC986D"/>
<path d="M241.483 70.0277C243.713 68.8573 246.461 69.0001 248.511 70.4338C251.459 72.4998 252.245 76.5063 250.344 79.5241L250.704 79.8999C252.829 76.6527 252.016 72.2473 248.815 70.0119C246.541 68.4201 243.538 68.2683 241.135 69.6244L241.495 70.0002L241.483 70.0277Z" fill="#BC986D"/>
<path d="M253.751 82.039C254.243 81.2433 254.625 80.4018 254.898 79.5145C254.921 79.4595 254.944 79.4044 254.978 79.3219C255.17 78.6272 255.319 77.8821 255.362 77.1577C255.364 76.9972 255.378 76.8093 255.38 76.6488C255.401 76.3668 255.394 76.0734 255.387 75.78C255.363 75.0602 255.246 74.3336 255.062 73.6116C254.821 72.6398 254.463 71.7162 253.961 70.8294C253.518 70.0319 252.959 69.2827 252.31 68.5931C251.661 67.9035 250.927 67.34 250.159 66.859C249.309 66.3438 248.385 65.9271 247.431 65.6595C246.737 65.4673 245.992 65.3188 245.267 65.2757C244.798 65.2416 244.355 65.2189 243.89 65.2513C243.17 65.2746 242.444 65.392 241.722 65.5758C241.433 65.6493 241.144 65.7228 240.883 65.8078C240.216 66.0145 239.582 66.2991 238.979 66.6617L240.348 68.1027C240.348 68.1027 240.561 68.2883 240.699 68.3455C241.029 68.4829 241.393 68.5377 241.76 68.432C242.516 68.1656 243.309 68.0437 244.095 68.0157C244.389 68.0086 244.709 68.013 245.019 68.045C246.08 68.1314 247.128 68.4059 248.111 68.9119C248.941 69.3217 249.686 69.8577 250.363 70.5588C251.039 71.2598 251.548 72.0527 251.924 72.8547C251.973 72.9716 252.021 73.0885 252.069 73.2054C252.438 74.1015 252.624 75.0504 252.662 75.9696C252.669 76.263 252.664 76.5839 252.632 76.8934C252.568 77.5124 252.477 78.1199 252.291 78.7206C252.234 78.8582 252.177 78.9958 252.147 79.1448C252.124 79.1998 252.113 79.2273 252.09 79.2823C251.992 79.5965 252.003 79.9563 252.159 80.2795C252.235 80.4078 252.311 80.5361 252.425 80.6484L253.778 82.0505L253.751 82.039Z" fill="#BC986D"/>
<path d="M257.76 83.0292C258.733 80.6905 260.919 79.0822 263.456 78.879C267.056 78.6018 270.213 81.1742 270.673 84.7225L271.198 84.7795C270.77 80.9217 267.324 78.0354 263.419 78.3472C260.655 78.5529 258.256 80.363 257.246 82.9447L257.771 83.0017L257.76 83.0292Z" fill="#BC986D"/>
<path d="M274.916 84.4541C274.785 83.5281 274.548 82.6228 274.195 81.7656C274.19 81.6992 274.147 81.6488 274.115 81.5708C273.814 80.8971 273.463 80.2669 273.034 79.6688C272.931 79.5291 272.828 79.3893 272.725 79.2495C272.562 79.0204 272.36 78.8073 272.17 78.5667C271.691 78.0123 271.149 77.5289 270.558 77.0891C269.769 76.5028 268.907 76.015 267.961 75.6534C267.108 75.2986 266.225 75.0928 265.269 74.9856C264.314 74.8785 263.406 74.8882 262.48 75.0194C261.488 75.1552 260.505 75.424 259.625 75.8326C258.951 76.1333 258.321 76.4844 257.695 76.9019C257.326 77.1681 256.958 77.4342 256.621 77.7783C256.066 78.2577 255.583 78.799 255.143 79.3906C254.974 79.6429 254.816 79.8676 254.646 80.1199C254.273 80.707 253.97 81.3559 253.707 81.9887L255.674 82.2259C255.674 82.2259 255.967 82.2189 256.1 82.2096C256.455 82.1315 256.774 81.909 256.966 81.6017C257.385 80.9045 257.892 80.3082 258.496 79.7852C258.71 79.5834 258.95 79.393 259.218 79.214C260.084 78.606 261.081 78.1493 262.147 77.9148C263.041 77.7057 263.971 77.6409 264.927 77.7481C265.883 77.8553 266.797 78.139 267.6 78.5374C267.71 78.5832 267.82 78.6289 267.93 78.6747C268.776 79.1235 269.525 79.7259 270.163 80.4431C270.365 80.6561 270.555 80.8967 270.734 81.1648C271.076 81.662 271.394 82.2143 271.635 82.7987C271.7 82.9545 271.748 83.0714 271.785 83.2158C271.801 83.2548 271.805 83.3213 271.821 83.3602C271.95 83.6719 272.195 83.9354 272.514 84.1002C272.651 84.1575 272.789 84.2147 272.949 84.2169L274.888 84.4427L274.916 84.4541Z" fill="#BC986D"/>
<path d="M277.362 90.8299C280.08 90.3469 282.892 91.4203 284.555 93.6291C286.924 96.7774 286.392 101.236 283.414 103.741L283.65 104.259C286.963 101.571 287.589 96.7311 284.986 93.2919C283.149 90.8815 280.05 89.7211 277.098 90.3005L277.334 90.8184L277.362 90.8299Z" fill="#BC986D"/>
<path d="M286.145 107.492C286.94 106.822 287.609 106.068 288.179 105.24C288.202 105.185 288.264 105.114 288.287 105.059C288.734 104.373 289.114 103.692 289.423 102.949C289.492 102.784 289.56 102.619 289.64 102.426C289.766 102.124 289.853 101.837 289.924 101.512C290.151 100.734 290.283 99.9503 290.333 99.1319C290.42 98.0705 290.33 96.968 290.107 95.8747C289.905 94.8868 289.586 93.9471 289.118 92.9778C288.666 92.0473 288.086 91.1926 287.46 90.448C286.747 89.6026 285.922 88.8718 285.039 88.2786C284.381 87.8434 283.672 87.4519 282.93 87.1429C282.462 86.9483 281.983 86.7812 281.492 86.6417C280.715 86.4152 279.931 86.2827 279.113 86.2328C278.792 86.2284 278.483 86.1965 278.151 86.2196C277.376 86.2201 276.633 86.2984 275.856 86.4594L276.82 88.4096C276.82 88.4096 276.999 88.6777 277.086 88.7785C277.359 89.0534 277.771 89.2251 278.159 89.2248C279.027 89.2312 279.889 89.3316 280.721 89.5809C281.035 89.6793 281.349 89.7777 281.68 89.915C282.752 90.3614 283.773 91.0118 284.619 91.848C285.323 92.5605 285.942 93.3991 286.394 94.3296C286.873 95.2714 287.13 96.2822 287.266 97.2747C287.275 97.4076 287.284 97.5406 287.294 97.6735C287.368 98.7371 287.265 99.7596 286.974 100.768C286.876 101.082 286.777 101.397 286.64 101.727C286.377 102.36 286.07 102.942 285.669 103.518C285.584 103.644 285.46 103.786 285.376 103.912C285.353 103.967 285.302 104.011 285.263 104.027C285.044 104.323 284.977 104.715 284.989 105.075C285.014 105.246 285.051 105.391 285.143 105.558L286.079 107.497L286.145 107.492Z" fill="#BC986D"/>
<path d="M289.997 109.869C291.774 107.769 294.632 106.795 297.335 107.435C301.19 108.329 303.589 112.103 302.894 115.946L303.417 116.163C304.249 111.991 301.639 107.87 297.442 106.867C294.497 106.19 291.378 107.248 289.47 109.585L289.992 109.803L289.997 109.869Z" fill="#BC986D"/>
<path d="M307.382 117.103C307.552 116.076 307.615 115.069 307.519 114.061C307.514 113.994 307.509 113.928 307.516 113.834C307.433 113.025 307.273 112.248 307.045 111.475C306.993 111.292 306.94 111.109 306.875 110.953C306.775 110.653 306.646 110.341 306.534 110.068C306.189 109.344 305.806 108.636 305.334 107.987C304.699 107.11 303.963 106.319 303.098 105.605C302.321 104.991 301.454 104.437 300.503 104.008C299.552 103.58 298.582 103.274 297.583 103.116C296.501 102.924 295.389 102.881 294.342 102.994C293.533 103.077 292.756 103.238 291.983 103.466C291.5 103.62 291.044 103.785 290.565 104.005C289.841 104.35 289.133 104.733 288.484 105.205C288.216 105.384 287.976 105.575 287.724 105.793C287.13 106.288 286.619 106.818 286.141 107.426L288.126 108.316C288.263 108.373 288.401 108.431 288.561 108.433C288.965 108.472 289.37 108.35 289.673 108.088C290.328 107.522 291.071 107.056 291.861 106.707C292.173 106.579 292.484 106.45 292.812 106.36C293.924 106.016 295.115 105.866 296.298 105.971C297.293 106.062 298.285 106.314 299.264 106.753C300.216 107.181 301.071 107.763 301.814 108.459C301.901 108.56 301.999 108.634 302.114 108.746C302.834 109.497 303.43 110.391 303.843 111.337C303.972 111.649 304.1 111.961 304.19 112.289C304.408 112.928 304.52 113.588 304.583 114.292C304.58 114.452 304.606 114.624 304.604 114.785C304.581 114.84 304.597 114.879 304.601 114.945C304.64 115.316 304.785 115.667 305.058 115.942C305.172 116.054 305.326 116.15 305.464 116.208L307.421 117.087L307.382 117.103Z" fill="#BC986D"/>
<path d="M309.567 123.564C312.32 123.773 314.752 125.527 315.824 128.071C317.345 131.706 315.699 135.895 312.168 137.557L312.287 138.123C316.185 136.355 318.008 131.82 316.342 127.835C315.185 125.03 312.489 123.133 309.459 122.97L309.579 123.536L309.567 123.564Z" fill="#BC986D"/>
<path d="M313.873 141.913C314.803 141.461 315.646 140.908 316.43 140.266C316.48 140.222 316.531 140.179 316.593 140.108C317.197 139.585 317.743 138.972 318.233 138.337C318.356 138.195 318.453 138.041 318.549 137.888C318.718 137.635 318.899 137.356 319.041 137.092C319.433 136.383 319.77 135.652 320.024 134.886C320.381 133.873 320.573 132.791 320.643 131.69C320.707 130.684 320.61 129.675 320.42 128.66C320.201 127.633 319.894 126.666 319.458 125.774C318.974 124.766 318.378 123.872 317.653 123.054C317.13 122.45 316.518 121.904 315.883 121.414C315.489 121.121 315.055 120.844 314.622 120.567C313.925 120.148 313.182 119.839 312.417 119.585C312.114 119.459 311.816 119.399 311.491 119.328C310.757 119.152 310.001 119.031 309.21 118.993L309.639 121.141C309.639 121.141 309.74 121.441 309.816 121.569C310.027 121.915 310.339 122.174 310.747 122.279C311.591 122.501 312.4 122.805 313.14 123.275C313.431 123.428 313.7 123.637 313.979 123.818C314.91 124.528 315.717 125.38 316.323 126.407C316.837 127.266 317.211 128.228 317.429 129.255C317.647 130.282 317.666 131.323 317.508 132.322C317.49 132.444 317.46 132.593 317.442 132.714C317.245 133.73 316.861 134.732 316.361 135.622C316.18 135.902 315.999 136.181 315.791 136.45C315.374 136.986 314.914 137.473 314.398 137.936C314.286 138.051 314.146 138.154 314.018 138.23C313.995 138.285 313.928 138.289 313.878 138.333C313.587 138.567 313.411 138.913 313.356 139.278C313.326 139.427 313.351 139.598 313.377 139.77L313.79 141.879L313.873 141.913Z" fill="#BC986D"/>
<path d="M316.998 145.183C319.239 143.597 322.257 143.401 324.696 144.674C328.19 146.515 329.581 150.773 327.944 154.32L328.37 154.691C330.255 150.86 328.742 146.196 324.957 144.202C322.282 142.798 318.986 143.041 316.56 144.839L317.014 145.222L316.998 145.183Z" fill="#BC986D"/>
<path d="M332.013 156.562C332.441 155.611 332.748 154.641 332.933 153.653C332.956 153.598 332.963 153.504 332.958 153.437C333.091 152.653 333.141 151.835 333.085 151.037C333.072 150.838 333.074 150.677 333.06 150.478C333.025 150.173 333.002 149.84 332.94 149.524C332.819 148.731 332.591 147.959 332.325 147.202C331.935 146.201 331.401 145.236 330.765 144.359C330.162 143.559 329.47 142.819 328.649 142.155C327.828 141.49 326.977 140.975 326.054 140.558C325.047 140.107 323.984 139.794 322.929 139.613C322.145 139.481 321.327 139.431 320.529 139.487C320.037 139.507 319.532 139.556 319.017 139.632C318.224 139.754 317.452 139.981 316.695 140.248C316.395 140.349 316.111 140.489 315.827 140.629C315.142 140.957 314.489 141.363 313.852 141.808L315.537 143.187C315.663 143.272 315.789 143.357 315.927 143.414C316.312 143.574 316.722 143.519 317.084 143.347C317.886 142.97 318.709 142.699 319.568 142.573C319.912 142.522 320.244 142.499 320.577 142.476C321.734 142.409 322.921 142.58 324.045 142.983C325.003 143.317 325.892 143.816 326.713 144.48C327.534 145.144 328.204 145.939 328.729 146.771C328.804 146.9 328.864 146.989 328.94 147.117C329.458 148.043 329.793 149.022 329.945 150.053C329.996 150.397 330.03 150.702 330.042 151.062C330.076 151.754 330.029 152.412 329.914 153.075C329.884 153.224 329.843 153.4 329.814 153.549C329.791 153.604 329.768 153.659 329.745 153.714C329.69 154.079 329.757 154.461 329.94 154.796C330.016 154.924 330.119 155.064 330.273 155.16L331.942 156.5L332.013 156.562Z" fill="#BC986D"/>
<path d="M334.366 163.706C336.951 164.394 338.953 166.486 339.521 169.078C340.327 172.803 338.029 176.463 334.397 177.437L334.395 177.985C338.387 176.999 340.916 173.016 340.032 168.936C339.418 166.066 337.192 163.817 334.352 163.119L334.35 163.667L334.366 163.706Z" fill="#BC986D"/>
<path d="M335.249 181.826C336.205 181.546 337.101 181.176 337.949 180.69C337.999 180.646 338.077 180.614 338.127 180.571C338.78 180.165 339.417 179.719 339.995 179.185C340.134 179.082 340.258 178.94 340.37 178.825C340.595 178.596 340.78 178.382 341.005 178.153C341.511 177.557 341.935 176.926 342.315 176.245C342.826 175.328 343.199 174.353 343.435 173.321C343.663 172.384 343.782 171.4 343.74 170.415C343.71 169.401 343.591 168.448 343.327 167.531C343.042 166.509 342.613 165.523 342.083 164.625C341.677 163.972 341.232 163.335 340.698 162.758C340.365 162.393 340.021 162.057 339.666 161.747C339.07 161.241 338.439 160.817 337.759 160.437C337.495 160.295 337.204 160.142 336.929 160.027C336.241 159.741 335.581 159.467 334.836 159.318L334.862 161.427C334.862 161.427 334.896 161.732 334.945 161.849C335.078 162.227 335.351 162.502 335.697 162.678C336.467 162.999 337.169 163.484 337.808 164.041C338.049 164.238 338.278 164.462 338.496 164.714C339.248 165.544 339.877 166.515 340.271 167.583C340.602 168.495 340.815 169.456 340.807 170.485C340.837 171.498 340.652 172.486 340.368 173.401C340.322 173.511 340.265 173.649 340.219 173.759C339.83 174.694 339.331 175.584 338.673 176.311C338.476 176.552 338.252 176.781 338 176.999C337.523 177.447 337.003 177.843 336.423 178.151C336.295 178.227 336.167 178.302 336.011 178.367C335.972 178.383 335.921 178.426 335.882 178.442C335.575 178.637 335.328 178.922 335.218 179.263C335.161 179.401 335.147 179.589 335.145 179.749L335.183 181.831L335.249 181.826Z" fill="#BC986D"/>
<path d="M337.666 185.479C340.1 184.361 342.967 184.683 345.058 186.327C348.053 188.671 348.618 192.973 346.44 196.037L346.777 196.468C349.219 193.158 348.614 188.485 345.363 185.905C343.075 184.114 339.898 183.761 337.274 185.025L337.639 185.467L337.666 185.479Z" fill="#BC986D"/>
<path d="M349.898 198.895C350.468 198.068 350.928 197.194 351.267 196.302C351.29 196.247 351.324 196.164 351.347 196.109C351.617 195.383 351.805 194.621 351.899 193.853C351.94 193.677 351.953 193.489 351.956 193.328C351.988 193.019 352.02 192.709 352.013 192.416C352.012 191.641 351.945 190.871 351.812 190.106C351.621 189.09 351.298 188.084 350.83 187.115C350.41 186.262 349.885 185.43 349.204 184.663C348.55 183.907 347.823 183.249 347.023 182.69C346.152 182.07 345.212 181.614 344.226 181.268C343.5 180.998 342.727 180.838 341.971 180.717C341.485 180.644 341.015 180.61 340.534 180.604C339.759 180.604 339 180.644 338.224 180.804C337.907 180.867 337.618 180.94 337.33 181.014C336.635 181.209 335.918 181.459 335.26 181.799L336.627 183.4C336.627 183.4 336.829 183.613 336.966 183.671C337.301 183.874 337.705 183.913 338.071 183.807C338.871 183.592 339.719 183.492 340.549 183.515C340.87 183.519 341.179 183.551 341.516 183.595C342.621 183.731 343.728 184.095 344.716 184.668C345.551 185.144 346.316 185.785 346.997 186.553C347.678 187.32 348.165 188.168 348.523 189.092C348.571 189.209 348.619 189.326 348.656 189.47C348.963 190.437 349.127 191.441 349.102 192.432C349.097 192.752 349.065 193.062 349.022 193.399C348.947 194.045 348.777 194.685 348.553 195.302C348.496 195.439 348.438 195.577 348.37 195.742C348.347 195.797 348.324 195.852 348.313 195.88C348.175 196.21 348.175 196.597 348.32 196.948C348.384 197.104 348.46 197.232 348.574 197.344L349.925 198.907L349.898 198.895Z" fill="#BC986D"/>
<path d="M108.397 52.582C109.784 50.2544 112.371 48.8454 115.108 49.0157C118.984 49.2403 121.976 52.5189 121.923 56.37L122.469 56.5325C122.604 52.3283 119.378 48.7587 115.138 48.4793C112.147 48.3 109.303 49.8604 107.84 52.4471L108.385 52.6095L108.397 52.582Z" fill="#BC986D"/>
<path d="M126.45 56.7363C126.447 55.7346 126.323 54.7146 126.07 53.7703C126.066 53.7038 126.034 53.6259 126.029 53.5594C125.829 52.7985 125.524 52.0582 125.169 51.3616C125.077 51.1943 125.013 51.0384 124.921 50.8711C124.77 50.6145 124.602 50.3189 124.423 50.0508C123.99 49.3863 123.467 48.7814 122.921 48.2316C122.162 47.4962 121.314 46.8204 120.369 46.2984C119.507 45.8106 118.588 45.4604 117.607 45.1813C116.614 44.9298 115.604 44.7997 114.641 44.7865C113.545 44.7826 112.487 44.9231 111.464 45.2079C110.704 45.4078 109.963 45.7131 109.267 46.0688C108.815 46.3006 108.392 46.5439 107.984 46.8261C107.319 47.2597 106.714 47.7827 106.165 48.3286C105.94 48.558 105.715 48.7874 105.518 49.0282C105.024 49.597 104.6 50.2276 104.231 50.8812L106.299 51.4186C106.436 51.4759 106.597 51.478 106.741 51.4413C107.14 51.4135 107.513 51.2139 107.761 50.9295C108.329 50.2621 108.957 49.684 109.66 49.2343C109.928 49.0554 110.224 48.8878 110.519 48.7203C111.539 48.2085 112.678 47.8755 113.847 47.7808C114.816 47.7 115.85 47.775 116.843 48.0266C117.863 48.2896 118.787 48.7062 119.587 49.2651C119.697 49.3109 119.811 49.4231 119.91 49.4964C120.754 50.1057 121.435 50.8732 122.015 51.7279C122.194 51.996 122.361 52.2916 122.501 52.5758C122.809 53.1556 123.027 53.795 123.206 54.4505C123.243 54.5949 123.268 54.7668 123.305 54.9112C123.309 54.9777 123.325 55.0166 123.33 55.0831C123.408 55.4384 123.63 55.7569 123.965 55.9607C124.103 56.0179 124.256 56.1141 124.405 56.1438L126.445 56.6698L126.45 56.7363Z" fill="#BC986D"/>
<path d="M130.696 55.3721C130.269 52.6766 131.374 49.9412 133.588 48.3444C136.729 46.0686 141.098 46.6597 143.524 49.6704L144.042 49.4339C141.46 46.1001 136.683 45.4038 133.278 47.9251C130.863 49.6962 129.682 52.6907 130.206 55.62L130.724 55.3836L130.696 55.3721Z" fill="#BC986D"/>
<path d="M147.268 47.032C146.626 46.2484 145.883 45.552 145.094 44.9656C145.039 44.9427 144.968 44.8809 144.925 44.8305C144.278 44.3678 143.597 43.9877 142.855 43.6787C142.69 43.61 142.524 43.5413 142.359 43.4726C142.057 43.3467 141.782 43.2323 141.456 43.1614C140.707 42.9464 139.934 42.7864 139.127 42.7089C138.066 42.6224 136.987 42.6575 135.932 42.8644C134.956 43.0392 134.017 43.3584 133.07 43.7716C132.151 44.1962 131.281 44.7377 130.536 45.364C129.702 46.0499 128.955 46.8366 128.362 47.7195C127.899 48.3662 127.519 49.0473 127.21 49.7901C127.015 50.2579 126.832 50.6981 126.693 51.1888C126.477 51.9385 126.317 52.7111 126.24 53.5181C126.208 53.8275 126.203 54.1485 126.199 54.4694C126.183 55.2053 126.25 55.9754 126.395 56.7135L128.349 55.816C128.349 55.816 128.606 55.6646 128.718 55.5499C128.993 55.2769 129.153 54.8917 129.153 54.5043C129.16 53.6355 129.288 52.785 129.526 51.9802C129.624 51.6661 129.723 51.352 129.876 51.0608C130.323 49.9877 130.978 49.0337 131.841 48.1988C132.542 47.5222 133.37 46.9302 134.327 46.4895C135.285 46.0488 136.257 45.8076 137.238 45.6992C137.371 45.69 137.504 45.6808 137.637 45.6715C138.661 45.6136 139.699 45.7551 140.681 46.0342C140.995 46.1326 141.309 46.2309 141.6 46.3844C142.205 46.6362 142.803 46.9819 143.324 47.3599C143.45 47.4446 143.565 47.5569 143.691 47.6416C143.746 47.6645 143.789 47.7149 143.805 47.7539C144.101 47.9737 144.482 48.0675 144.853 48.0283C145.025 48.003 145.169 47.9662 145.325 47.902L147.241 47.0206L147.268 47.032Z" fill="#BC986D"/>
<path d="M68.9978 64.5942C69.705 62.274 71.6823 60.5467 74.0451 60.1418C77.4507 59.5575 80.6628 61.7654 81.4137 65.0797L81.9225 65.0977C81.1875 61.435 77.6522 58.9958 73.9578 59.6536C71.3452 60.1159 69.1938 62.029 68.4615 64.5648L68.9703 64.5828L68.9978 64.5942Z" fill="#BC986D"/>
<path d="M85.4726 64.4767C85.2637 63.5828 84.9539 62.7761 84.5387 61.9901C84.4951 61.9397 84.4905 61.8732 84.447 61.8228C84.1235 61.2041 83.7222 60.6175 83.259 60.102C83.1443 59.9897 83.0411 59.85 82.9265 59.7377C82.7522 59.5361 82.5389 59.3505 82.3372 59.1375C81.8235 58.6655 81.2595 58.2372 80.6726 57.8639C79.8771 57.3715 79.0083 56.9778 78.0822 56.7216C77.2501 56.4722 76.3608 56.3604 75.4646 56.3426C74.5409 56.3133 73.6654 56.401 72.8381 56.6055C71.9054 56.8307 70.9933 57.1613 70.1844 57.6317C69.5657 57.9553 68.9792 58.3568 68.4637 58.8202C68.1223 59.0978 67.797 59.4143 67.5106 59.7148C67.0387 60.2285 66.6103 60.7927 66.237 61.3798C66.1065 61.6159 65.9645 61.8797 65.8339 62.1158C65.5271 62.6983 65.2913 63.3426 65.0944 63.9708L67.0083 64.0247C67.0083 64.0247 67.2741 64.0062 67.4185 63.9694C67.7577 63.8523 68.0486 63.6183 68.2021 63.3271C68.5547 62.6346 68.9785 62.0039 69.4894 61.4741C69.7024 61.2723 69.888 61.059 70.1285 60.8685C70.9121 60.2262 71.8103 59.6962 72.8164 59.3723C73.6391 59.1014 74.5375 58.9587 75.4612 58.988C76.3848 59.0172 77.2788 59.1955 78.088 59.4999C78.198 59.5457 78.3081 59.5914 78.4181 59.6372C79.2709 59.992 80.0274 60.5005 80.6993 61.1351C80.9125 61.3206 81.1143 61.5337 81.3046 61.7743C81.6968 62.2279 82.011 62.7137 82.3023 63.2545C82.378 63.3828 82.4262 63.4997 82.5019 63.628C82.5179 63.667 82.534 63.706 82.5776 63.7564C82.7175 64.0405 82.9743 64.2765 83.2883 64.3749C83.4259 64.4321 83.5474 64.4504 83.7078 64.4526L85.5941 64.495L85.4726 64.4767Z" fill="#BC986D"/>
<path d="M88.8318 62.4529C87.9163 60.2322 88.3232 57.6256 89.8924 55.7931C92.1419 53.1785 96.0427 52.8002 98.7253 54.8846L99.117 54.5635C96.2167 52.227 91.9675 52.5894 89.5209 55.4448C87.8166 57.4471 87.3732 60.2967 88.424 62.7351L88.8157 62.414L88.8318 62.4529Z" fill="#BC986D"/>
<path d="M101.429 51.8778C100.722 51.3257 99.9316 50.8998 99.1453 50.5404L98.9802 50.4717C98.32 50.197 97.6529 50.0163 96.963 49.8907C96.814 49.861 96.6375 49.8198 96.4771 49.8176C96.2066 49.7696 95.9247 49.7492 95.6428 49.7287C94.946 49.697 94.2538 49.7318 93.5388 49.8216C92.6129 49.9529 91.6962 50.217 90.8002 50.5866C90.0096 50.9355 89.2397 51.3899 88.518 51.9611C87.7963 52.5323 87.1731 53.1768 86.66 53.8671C86.0851 54.6285 85.6087 55.4632 85.2699 56.3551C84.9951 57.0155 84.8144 57.6827 84.6886 58.3727C84.6109 58.7923 84.5492 59.2508 84.5264 59.6932C84.4947 60.3901 84.5293 61.0824 84.6191 61.7975C84.665 62.0749 84.711 62.3522 84.7569 62.6295C84.9085 63.2736 85.1265 63.913 85.3835 64.5364L86.8773 63.3504C86.8773 63.3504 87.0789 63.176 87.1362 63.0385C87.3286 62.7312 87.4109 62.3781 87.3214 62.0504C87.1492 61.3009 87.0824 60.5307 87.137 59.7788C87.1576 59.4968 87.1895 59.1873 87.2375 58.9168C87.3952 57.9172 87.7684 56.9428 88.3341 56.0484C88.8036 55.3077 89.3993 54.6518 90.121 54.0805C90.8427 53.5093 91.6287 53.0939 92.4628 52.7954C92.5797 52.7472 92.6851 52.7265 92.802 52.6783C93.6797 52.4302 94.5942 52.3265 95.5064 52.3833C95.7883 52.4038 96.0978 52.4357 96.3682 52.4837C96.9367 52.5911 97.5098 52.7649 98.0599 52.9938C98.1975 53.0511 98.3075 53.0969 98.4451 53.1541C98.5001 53.177 98.5276 53.1884 98.5826 53.2113C98.8852 53.3372 99.2336 53.353 99.5338 53.252C99.6782 53.2152 99.8065 53.1395 99.9073 53.0523L101.39 51.8938L101.429 51.8778Z" fill="#BC986D"/>
<path d="M86.6341 62.9264L131.352 197.441L83.6596 63.9483L86.6341 62.9264Z" fill="#BC986D"/>
<path d="M127.783 53.9985L143.491 198.36L124.657 54.3763L127.783 53.9985Z" fill="#BC986D"/>
<path d="M172.952 56.4267L155.24 198.665L169.803 56.0847L172.952 56.4267Z" fill="#BC986D"/>
<path d="M215.248 66.1486L166.375 201.297L212.236 65.089L215.248 66.1486Z" fill="#BC986D"/>
<path d="M255.231 82.5907L176.453 206.394L252.538 80.9212L255.231 82.5907Z" fill="#BC986D"/>
<path d="M288.139 108.128L185.04 214.066L285.851 105.95L288.139 108.128Z" fill="#BC986D"/>
<path d="M315.757 142.116L191.608 223.254L313.984 139.474L315.757 142.116Z" fill="#BC986D"/>
<path d="M336.858 182.69L194.167 234.712L335.771 179.719L336.858 182.69Z" fill="#BC986D"/>
<path d="M143.756 274.743C144.456 266.545 146.038 258.553 147.825 250.614L150.928 251.066C150.685 255.451 150.387 259.814 149.889 264.19C149.654 266.384 149.364 268.555 149.074 270.726C148.69 272.89 148.388 275.089 147.91 277.246C147.664 275.046 147.617 272.831 147.465 270.638C147.406 268.451 147.36 266.236 147.368 264.045C147.384 259.662 147.534 255.27 147.804 250.896L150.908 251.348C148.972 259.258 146.805 267.103 143.783 274.755" fill="#BC986D"/>
<path d="M155.586 276.792C152.298 268.484 149.943 259.951 147.81 251.35L150.915 250.866C151.549 259.813 151.957 268.762 151.394 277.792C149.458 268.949 148.492 260.026 147.752 251.1L150.858 250.617C152.885 259.239 154.663 267.919 155.547 276.808" fill="#BC986D"/>
<path d="M158.947 274.608C156.195 271.139 154.339 267.3 152.678 263.381C151.122 259.442 149.784 255.367 149.358 250.961C152.11 254.43 153.966 258.269 155.627 262.188C157.172 266.155 158.521 270.202 158.947 274.608Z" fill="#BC986D"/>
<path d="M126.365 259.147C133.628 255.262 141.179 252.238 148.826 249.449L150.132 252.284C146.317 254.473 142.469 256.584 138.558 258.539C136.596 259.531 134.619 260.483 132.625 261.397C130.588 262.26 128.61 263.212 126.525 263.959C128.243 262.543 130.069 261.334 131.847 260.008C133.658 258.76 135.468 257.512 137.31 256.342C141.006 253.974 144.761 251.695 148.565 249.534L149.87 252.369C142.175 255.041 134.411 257.492 126.349 259.108" fill="#BC986D"/>
<path d="M131.086 270.214C136.272 262.947 142.169 256.298 148.212 249.839L150.338 252.176C143.18 257.59 135.887 262.786 128.007 267.222C134.36 260.795 141.311 255.101 148.425 249.637L150.54 252.001C144.398 258.387 138.097 264.61 131.125 270.198" fill="#BC986D"/>
<path d="M134.766 271.842C136.157 267.644 138.388 263.988 140.777 260.496C143.249 257.037 145.917 253.726 149.37 250.934C147.979 255.132 145.748 258.787 143.359 262.28C140.887 265.738 138.219 269.05 134.766 271.842Z" fill="#BC986D"/>
<path d="M139.761 273.177C140.286 268.813 141.719 264.825 143.344 260.918C145.052 257.045 146.997 253.303 149.821 249.927C149.296 254.292 147.89 258.291 146.237 262.186C144.502 266.048 142.585 269.801 139.761 273.177Z" fill="#BC986D"/>
</g>
<defs>
<clipPath id="clip0_3_463">
<rect width="319.042" height="233.702" fill="white" transform="translate(89.7739) rotate(22.5903)"/>
</clipPath>
</defs>
</svg>
