<svg width="181" height="178" viewBox="0 0 181 178" fill="none" xmlns="http://www.w3.org/2000/svg">
<g clip-path="url(#clip0_3_521)">
<path d="M116.655 120.253L134.94 29.3666C134.94 29.3666 133.107 29.5088 132.308 36.0916L116.927 118.964L116.655 120.253Z" stroke="#BC986D" stroke-width="0.5" stroke-miterlimit="10"/>
<path d="M116.219 120.277L114.258 27.6195C114.258 27.6195 112.501 28.1522 113.14 34.7453L116.219 120.277Z" stroke="#BC986D" stroke-width="0.5" stroke-miterlimit="10"/>
<path d="M115.61 120.457L92.6207 30.3411C92.6207 30.3411 91.035 31.2695 93.1601 37.5372L115.143 118.915L115.61 120.457Z" stroke="#BC986D" stroke-width="0.5" stroke-miterlimit="10"/>
<path d="M115.104 120.526L72.5278 37.5604C72.5278 37.5604 71.1849 38.8207 74.6674 44.4568L114.306 118.86L115.113 120.536L115.104 120.526Z" stroke="#BC986D" stroke-width="0.5" stroke-miterlimit="10"/>
<path d="M114.638 120.578L57.194 49.4901C57.194 49.4901 56.1377 50.988 60.6685 55.8115L114.639 120.742L114.619 120.577L114.638 120.578Z" stroke="#BC986D" stroke-width="0.5" stroke-miterlimit="10"/>
<path d="M114.259 120.973L42.8296 64.0318C42.8296 64.0318 42.1198 65.732 47.5888 69.4569L114.296 121.178L114.249 120.982L114.259 120.973Z" stroke="#BC986D" stroke-width="0.5" stroke-miterlimit="10"/>
<path d="M114.466 121.612L31.2088 81.9771C31.2088 81.9771 30.9084 83.7863 37.0867 86.178L113.677 121.386L114.466 121.612Z" stroke="#BC986D" stroke-width="0.5" stroke-miterlimit="10"/>
<path d="M114.537 121.915L24.0536 101.835C24.0536 101.835 24.1578 103.666 30.713 104.62L114.537 121.915Z" stroke="#BC986D" stroke-width="0.5" stroke-miterlimit="10"/>
<path d="M114.32 122.348L22.1479 120.886C22.1479 120.886 22.6222 122.659 29.2308 122.264L113.523 122.44L114.32 122.348Z" stroke="#BC986D" stroke-width="0.5" stroke-miterlimit="10"/>
<path d="M117.304 120.751C117.958 121.704 117.714 123.005 116.761 123.658C115.808 124.312 114.508 124.068 113.854 123.115C113.2 122.162 113.444 120.861 114.397 120.208C115.35 119.554 116.65 119.799 117.304 120.751Z" fill="#BC986D"/>
<path d="M33.5851 80.7245C33.1354 79.5701 33.3621 78.2301 34.1947 77.2996C35.3866 75.9732 37.3941 75.8211 38.7645 76.9191L38.9755 76.7663C37.4969 75.5272 35.2957 75.6882 34.0012 77.1249C33.0966 78.1384 32.8434 79.6122 33.3649 80.8671L33.576 80.7143L33.5851 80.7245Z" fill="#BC986D"/>
<path d="M40.1795 75.3922C39.8088 75.1017 39.4157 74.8679 39.0104 74.6818C38.9922 74.6615 38.9537 74.6594 38.9253 74.6482C38.595 74.5047 38.2433 74.3988 37.8896 74.3313C37.8034 74.317 37.7274 74.2936 37.6412 74.2793C37.4973 74.2618 37.3534 74.2444 37.2094 74.2269C36.8536 74.198 36.4957 74.2076 36.1357 74.2557C35.6592 74.3169 35.1693 74.4449 34.7149 74.6328C34.3 74.8036 33.9013 75.0331 33.5289 75.3124C33.1564 75.5917 32.8296 75.9217 32.5503 76.264C32.2396 76.6528 31.9846 77.0833 31.7965 77.5271C31.6531 77.8574 31.5472 78.2091 31.4799 78.5628C31.439 78.7828 31.4073 79.0129 31.3857 79.2338C31.3569 79.5897 31.3666 79.9476 31.4148 80.3076C31.4359 80.4536 31.457 80.5996 31.4883 80.7365C31.5568 81.0783 31.6648 81.4029 31.7922 81.7285L32.5776 81.1335C32.6284 81.088 32.6791 81.0424 32.7117 80.9766C32.8163 80.8277 32.8459 80.6361 32.8167 80.4607C32.731 80.0794 32.7042 79.6819 32.7442 79.2977C32.7525 79.1436 32.7801 78.9905 32.8066 78.8568C32.9117 78.3409 33.1029 77.8393 33.3975 77.3916C33.6494 77.0189 33.958 76.6685 34.3406 76.3802C34.7232 76.0918 35.1401 75.8825 35.5631 75.7412C35.6219 75.7251 35.6807 75.7089 35.7395 75.6928C36.2 75.5728 36.6755 75.531 37.1276 75.5651C37.2817 75.5734 37.4257 75.5909 37.5686 75.6276C37.8747 75.6828 38.1594 75.7755 38.4421 75.9067C38.508 75.9392 38.5739 75.9718 38.6397 76.0043C38.6579 76.0246 38.6772 76.0256 38.7056 76.0368C38.8565 76.103 39.039 76.1225 39.2064 76.0639C39.2753 76.0387 39.3443 76.0134 39.4052 75.9588L40.1805 75.3729L40.1795 75.3922Z" fill="#BC986D"/>
<path d="M40.9007 73.4801C39.8126 72.8803 39.1419 71.7043 39.1901 70.4512C39.2573 68.668 40.7139 67.269 42.4729 67.2483L42.5351 66.9908C40.6139 66.9738 39.0152 68.5003 38.9397 70.4377C38.8853 71.8063 39.637 73.093 40.8487 73.7284L40.9109 73.471L40.9007 73.4801Z" fill="#BC986D"/>
<path d="M42.5757 65.1579C42.1113 65.1714 41.654 65.2336 41.222 65.3647C41.1925 65.3728 41.1631 65.3809 41.1337 65.3889C40.7899 65.4959 40.4542 65.6323 40.1356 65.8082C40.0656 65.8527 39.9865 65.8871 39.9164 65.9316C39.7967 66.0024 39.6669 66.0823 39.5562 66.1632C39.265 66.3696 38.9819 66.6054 38.7453 66.8727C38.4072 67.2311 38.1249 67.6312 37.8983 68.0729C37.6838 68.4669 37.5251 68.9027 37.4232 69.3608C37.3212 69.8189 37.2679 70.27 37.2724 70.7242C37.2839 71.2271 37.3645 71.7047 37.5038 72.1662C37.6108 72.5101 37.7473 72.8459 37.9233 73.1645C38.0284 73.3634 38.1529 73.5633 38.2784 73.7439C38.4848 74.0352 38.7308 74.3093 38.9881 74.555C39.0883 74.6667 39.1997 74.75 39.3111 74.8333C39.5795 75.0507 39.8783 75.2407 40.1884 75.4024L40.4136 74.4487C40.4136 74.4487 40.431 74.3047 40.4251 74.2368C40.406 74.0522 40.318 73.8929 40.1793 73.7792C39.8643 73.5303 39.6092 73.2461 39.3754 72.9243C39.2853 72.8035 39.2054 72.6736 39.1356 72.5346C38.8807 72.0669 38.7151 71.5557 38.6569 71.0213C38.6038 70.5741 38.6287 70.1118 38.7408 69.6446C38.8529 69.1774 39.04 68.7528 39.2726 68.3791C39.3041 68.3325 39.3457 68.2768 39.3772 68.2302C39.6494 67.8392 39.9956 67.5102 40.3771 67.2411C40.4979 67.1511 40.6277 67.0712 40.7667 67.0014C41.0356 66.8518 41.3216 66.7417 41.6157 66.661C41.6847 66.6358 41.7526 66.6298 41.8216 66.6045C41.8419 66.5863 41.8703 66.5975 41.8997 66.5894C42.066 66.5501 42.2071 66.4419 42.2924 66.292C42.334 66.2363 42.3575 66.1602 42.3809 66.0842L42.596 65.1396L42.5757 65.1579Z" fill="#BC986D"/>
<path d="M45.1736 63.1928C44.9571 62.0123 45.4291 60.7822 46.3962 60.0425C47.7662 58.9962 49.7145 59.2272 50.8129 60.5326L51.0411 60.4194C49.8639 58.9648 47.7433 58.7052 46.2332 59.8405C45.1758 60.6429 44.6682 61.9967 44.9363 63.2958L45.1645 63.1826L45.1736 63.1928Z" fill="#BC986D"/>
<path d="M52.4519 59.3367C52.1512 59.0017 51.8201 58.694 51.4665 58.4431C51.4483 58.4228 51.4199 58.4116 51.3825 58.3902C51.0938 58.1911 50.7837 58.0294 50.4625 57.8961C50.3865 57.8727 50.3116 57.83 50.2355 57.8066C50.1028 57.7607 49.97 57.7149 49.8362 57.6884C49.4937 57.5926 49.1491 57.5353 48.8024 57.5165C48.331 57.4813 47.8463 57.5131 47.3869 57.6138C46.9569 57.7064 46.534 57.8477 46.1272 58.0479C45.7204 58.248 45.3501 58.4888 45.0161 58.7701C44.6609 59.089 44.333 59.4382 44.0699 59.8393C43.8708 60.128 43.7092 60.438 43.576 60.7592C43.4876 60.9669 43.4184 61.1757 43.3684 61.3854C43.2828 61.7189 43.2155 62.0726 43.1968 62.4193C43.1895 62.5542 43.1914 62.6991 43.1841 62.834C43.1857 63.1625 43.2157 63.5021 43.2944 63.8348L44.1475 63.4173C44.1475 63.4173 44.2672 63.3466 44.3089 63.2909C44.4408 63.1724 44.4988 62.9921 44.498 62.8278C44.4995 62.4415 44.5487 62.0675 44.6454 61.7057C44.6821 61.5628 44.7381 61.4209 44.7838 61.2882C44.9832 60.816 45.2676 60.3774 45.6259 60.0008C45.9325 59.689 46.2948 59.4188 46.7117 59.2096C47.1287 59.0003 47.5597 58.8884 47.9978 58.8252C48.0657 58.8192 48.1144 58.8122 48.1721 58.8153C48.6375 58.7826 49.0886 58.836 49.5264 58.9562C49.6693 58.9929 49.8112 59.0489 49.944 59.0947C50.2186 59.1965 50.481 59.346 50.7231 59.5136C50.7788 59.5553 50.8345 59.5969 50.8902 59.6386C50.9084 59.6589 50.9266 59.6792 50.9358 59.6893C51.0755 59.7838 51.2377 59.8216 51.403 59.8015C51.4709 59.7955 51.5399 59.7703 51.6089 59.7451L52.4519 59.3367Z" fill="#BC986D"/>
<path d="M53.4889 57.6543C52.5653 56.8702 52.1491 55.6307 52.4254 54.4479C52.8158 52.7594 54.4667 51.6994 56.1502 52.003L56.259 51.777C54.4244 51.4073 52.6234 52.5655 52.1963 54.3969C51.8946 55.6942 52.3623 57.0524 53.3994 57.8813L53.5082 57.6553L53.4889 57.6543Z" fill="#BC986D"/>
<path d="M56.6424 50.0399C56.2025 49.9581 55.7493 49.9432 55.3123 49.9872C55.2738 49.9851 55.2444 49.9932 55.2149 50.0013C54.8651 50.0403 54.5234 50.1087 54.1897 50.2066C54.1207 50.2318 54.0325 50.256 53.9635 50.2813C53.8357 50.3226 53.7069 50.3833 53.5781 50.4439C53.2616 50.5813 52.9521 50.7674 52.671 50.9647C52.2895 51.2338 51.9332 51.5719 51.6428 51.9426C51.3636 52.2848 51.1309 52.6586 50.9439 53.0831C50.7669 53.4986 50.6184 53.9252 50.5469 54.3559C50.4631 54.8344 50.4473 55.3068 50.4893 55.7824C50.5284 56.1322 50.5969 56.474 50.6948 56.8077C50.7604 57.0237 50.8362 57.2306 50.9323 57.4194C51.0698 57.7359 51.2559 58.0454 51.4533 58.3265C51.5342 58.4372 51.6152 58.5478 51.7154 58.6595C51.9432 58.9133 52.1619 59.1569 52.4405 59.3652L52.8349 58.4979C52.8349 58.4979 52.8807 58.3651 52.8838 58.3074C52.8932 58.134 52.8447 57.9575 52.7263 57.8255C52.4711 57.5413 52.2769 57.2024 52.1212 56.8655C52.0605 56.7367 52.01 56.5987 51.9697 56.4517C51.8121 55.9698 51.7529 55.4547 51.7911 54.9255C51.8241 54.4927 51.9352 54.0447 52.1314 53.6303C52.3184 53.2058 52.5704 52.8331 52.8769 52.5213C52.9175 52.4848 52.9683 52.4393 53.0089 52.4029C53.3448 52.083 53.7253 51.8331 54.1413 51.6431C54.2701 51.5825 54.408 51.532 54.5551 51.4917C54.8401 51.4008 55.123 51.3485 55.4242 51.3165C55.4921 51.3106 55.56 51.3046 55.6371 51.3087C55.6563 51.3098 55.6858 51.3017 55.705 51.3028C55.8601 51.2918 56.0184 51.2231 56.1412 51.0945C56.192 51.049 56.2245 50.9831 56.257 50.9173L56.6413 50.0591L56.6424 50.0399Z" fill="#BC986D"/>
<path d="M59.4985 48.6682C59.4543 47.5164 60.0549 46.4092 61.0512 45.8449C62.4857 45.0339 64.2959 45.4989 65.168 46.879L65.3942 46.8043C64.4715 45.2863 62.4912 44.7541 60.9369 45.6359C59.831 46.2618 59.1766 47.4724 59.2632 48.7327L59.4894 48.6581L59.4985 48.6682Z" fill="#BC986D"/>
<path d="M66.8782 45.9671C66.6465 45.6069 66.3742 45.2831 66.0613 44.9957C66.0431 44.9754 66.0249 44.9551 65.9975 44.9246C65.7484 44.7083 65.4698 44.5 65.1791 44.3394C65.1132 44.3069 65.0383 44.2642 64.9724 44.2316C64.8599 44.1676 64.7373 44.1127 64.6147 44.0577C64.3128 43.9255 63.9895 43.8307 63.655 43.7643C63.206 43.6724 62.7539 43.6383 62.2885 43.6711C61.8718 43.6968 61.4519 43.7803 61.0391 43.9125C60.6263 44.0447 60.249 44.2368 59.8989 44.4594C59.5184 44.7092 59.1642 45.0088 58.8657 45.35C58.6494 45.5991 58.4413 45.8776 58.2807 46.1683C58.174 46.3557 58.0775 46.534 57.9992 46.7326C57.867 47.0346 57.7723 47.3579 57.706 47.6923C57.6794 47.8261 57.6529 47.9599 57.6365 48.0846C57.5905 48.4008 57.583 48.7192 57.614 49.0396L58.4792 48.758C58.4792 48.758 58.5979 48.7065 58.6486 48.6609C58.7704 48.5516 58.8649 48.4119 58.8935 48.2395C58.9325 47.8746 59.0384 47.523 59.1817 47.1927C59.2366 47.0701 59.3017 46.9384 59.3758 46.8168C59.6207 46.3954 59.9405 46.0167 60.3434 45.7101C60.6763 45.448 61.0446 45.2458 61.4675 45.1045C61.8904 44.9631 62.3183 44.909 62.7239 44.9117C62.7817 44.9148 62.8394 44.9179 62.8972 44.921C63.3402 44.945 63.769 45.0551 64.156 45.221C64.2786 45.2759 64.4103 45.341 64.5319 45.4152C64.775 45.5636 65.008 45.721 65.2197 45.916C65.2652 45.9668 65.3108 46.0175 65.3665 46.0592C65.3847 46.0795 65.3938 46.0896 65.4121 46.11C65.5224 46.2125 65.6734 46.2786 65.8377 46.2779C65.9056 46.2719 65.9735 46.2659 66.0425 46.2407L66.8884 45.958L66.8782 45.9671Z" fill="#BC986D"/>
<path d="M68.0773 44.5059C67.3028 43.643 67.0692 42.423 67.4852 41.3347C68.0802 39.7925 69.7652 38.995 71.3218 39.5043L71.4488 39.2987C69.7706 38.7152 67.899 39.5702 67.2582 41.2451C66.7985 42.4276 67.0735 43.7754 67.9412 44.7014L68.0682 44.4957L68.0773 44.5059Z" fill="#BC986D"/>
<path d="M72.0473 37.6986C71.6389 37.5703 71.2182 37.4896 70.7945 37.4666C70.7661 37.4554 70.7367 37.4635 70.6982 37.4614C70.3606 37.4528 70.031 37.4736 69.6994 37.5329C69.6214 37.548 69.5433 37.5631 69.4652 37.5782C69.3384 37.6003 69.2106 37.6417 69.0737 37.6729C68.7502 37.7617 68.4439 37.89 68.1456 38.0477C67.7479 38.258 67.3765 38.518 67.0406 38.8379C66.7259 39.1203 66.467 39.4443 66.2343 39.8181C66.0017 40.1919 65.8268 40.5688 65.6986 40.9772C65.5591 41.4139 65.4764 41.8731 65.4718 42.3171C65.4633 42.6548 65.4842 42.9843 65.5334 43.325C65.5707 43.5299 65.6079 43.7347 65.6837 43.9417C65.7725 44.2652 65.9009 44.5716 66.0587 44.8699C66.1295 44.9896 66.1912 45.0992 66.262 45.219C66.431 45.4889 66.6395 45.7416 66.8491 45.9751L67.3346 45.2094C67.3346 45.2094 67.3895 45.0868 67.4119 45.0301C67.4496 44.8679 67.4205 44.6924 67.3314 44.5524C67.126 44.2419 66.9794 43.9152 66.8825 43.5622C66.8411 43.4344 66.8099 43.2975 66.7888 43.1515C66.7083 42.6738 66.716 42.172 66.8291 41.6855C66.9189 41.275 67.0755 40.8778 67.3081 40.5041C67.5408 40.1303 67.8382 39.8083 68.1609 39.5553C68.2015 39.5189 68.2421 39.4825 68.2827 39.446C68.6349 39.185 69.0315 38.9939 69.4534 38.8719C69.5812 38.8305 69.7181 38.7993 69.8641 38.7782C70.1369 38.735 70.4279 38.7121 70.7168 38.7278C70.7939 38.7319 70.8517 38.7351 70.9186 38.7483C70.9378 38.7494 70.9662 38.7606 70.9855 38.7616C71.1396 38.7699 71.2968 38.7205 71.4277 38.6213C71.4784 38.5758 71.5292 38.5302 71.5617 38.4644L72.0371 37.7077L72.0473 37.6986Z" fill="#BC986D"/>
<path d="M75.1635 37.9446C75.4996 36.7265 76.4974 35.7759 77.7376 35.5243C79.5052 35.166 81.2425 36.2645 81.6905 37.9888L81.951 37.9932C81.4932 36.0946 79.6171 34.8823 77.6832 35.2799C76.3253 35.5638 75.2351 36.6156 74.8928 37.9493L75.1534 37.9537L75.1635 37.9446Z" fill="#BC986D"/>
<path d="M83.778 37.5995C83.6579 37.139 83.478 36.7139 83.2484 36.3151C83.2302 36.2948 83.213 36.2553 83.1947 36.235C82.9995 35.9153 82.793 35.624 82.547 35.3499C82.4923 35.289 82.4377 35.2281 82.3739 35.157C82.2737 35.0454 82.1724 34.953 82.0519 34.8595C81.7754 34.6127 81.4776 34.4034 81.1493 34.2215C80.7279 33.9765 80.2547 33.7964 79.7591 33.6729C79.3111 33.5618 78.86 33.5084 78.3673 33.5107C77.8938 33.514 77.4263 33.5853 76.9953 33.6972C76.5055 33.8253 76.0409 34.0223 75.6219 34.2701C75.3124 34.4562 75.011 34.6717 74.737 34.9176C74.5645 35.0725 74.401 35.2375 74.2467 35.4127C74 35.6891 73.7908 35.9869 73.6089 36.3151C73.5438 36.4468 73.4697 36.5683 73.4137 36.7102C73.2612 37.0303 73.1473 37.3526 73.0607 37.7053L74.0563 37.6915C74.0563 37.6915 74.2023 37.6705 74.2611 37.6543C74.4285 37.5958 74.5807 37.4591 74.6569 37.299C74.8308 36.9414 75.0421 36.6051 75.3091 36.3105C75.4116 36.2001 75.5141 36.0898 75.6359 35.9805C76.0318 35.6252 76.5016 35.3319 77.0138 35.1471C77.4469 34.9967 77.9154 34.9061 78.3888 34.9028C78.8724 34.8903 79.3407 34.9832 79.7775 35.1228C79.8343 35.1452 79.891 35.1676 79.9478 35.1899C80.4017 35.3691 80.8039 35.613 81.1634 35.9319C81.2738 36.0344 81.3842 36.137 81.4935 36.2588C81.7031 36.4923 81.8832 36.7339 82.0421 37.0129C82.0775 37.0728 82.1118 37.1519 82.1472 37.2118C82.1655 37.2321 82.1735 37.2615 82.1725 37.2808C82.2514 37.4299 82.4003 37.5346 82.5513 37.6007C82.6273 37.6241 82.6942 37.6374 82.7814 37.6325L83.7668 37.6278L83.778 37.5995Z" fill="#BC986D"/>
<path d="M85.5196 36.4766C85.002 35.3282 85.1629 33.9557 85.96 32.9653C87.0892 31.5486 89.1212 31.3012 90.5717 32.3456L90.7645 32.1725C89.2047 31.0063 86.9881 31.2727 85.7463 32.8089C84.8862 33.8924 84.7089 35.3896 85.2984 36.6385L85.4913 36.4654L85.5196 36.4766Z" fill="#BC986D"/>
<path d="M91.9341 30.7193C91.5431 30.447 91.1398 30.2223 90.7041 30.0635C90.6757 30.0523 90.6473 30.0411 90.6099 30.0198C90.2592 29.8946 89.9065 29.8079 89.5426 29.7495C89.4565 29.7352 89.3703 29.7209 89.2933 29.7167C89.1493 29.6993 88.9952 29.6909 88.8604 29.6836C88.4934 29.6831 88.1254 29.7018 87.7644 29.7692C87.2766 29.8587 86.805 30.0071 86.3394 30.2233C85.9326 30.4235 85.5328 30.6723 85.1684 30.981C84.8041 31.2897 84.4863 31.6299 84.2243 32.0117C83.9318 32.4209 83.695 32.8717 83.5352 33.3267C83.4101 33.6773 83.3235 34.03 83.2652 34.3938C83.2335 34.6239 83.2119 34.8449 83.2086 35.0862C83.2081 35.4532 83.2269 35.8213 83.2944 36.1823C83.3155 36.3283 83.3468 36.4653 83.3871 36.6123C83.4749 36.9551 83.5931 37.2706 83.7499 37.5882L84.509 36.9435C84.5598 36.8979 84.6105 36.8524 84.6431 36.7865C84.7386 36.6275 84.7682 36.4359 84.7197 36.2595C84.6148 35.8771 84.5687 35.4786 84.5803 35.0832C84.5886 34.9291 84.5969 34.775 84.6245 34.6219C84.7012 34.0949 84.8742 33.573 85.1506 33.105C85.3842 32.712 85.6838 32.3515 86.0583 32.0337C86.4226 31.725 86.8315 31.4863 87.2656 31.3166C87.3245 31.3005 87.3742 31.2742 87.4431 31.249C87.8955 31.0996 88.3822 31.0293 88.8546 31.0452C89.0087 31.0536 89.1628 31.0619 89.3159 31.0895C89.623 31.1255 89.9179 31.209 90.2209 31.322C90.2868 31.3546 90.3628 31.378 90.4287 31.4105C90.4469 31.4308 90.4661 31.4319 90.4945 31.4431C90.6556 31.5001 90.829 31.5095 90.9964 31.4509C91.0653 31.4257 91.1353 31.3812 91.1861 31.3356L91.9351 30.7L91.9341 30.7193Z" fill="#BC986D"/>
<path d="M95.034 31.0899C95.663 29.9938 96.8672 29.3346 98.1294 29.3932C99.9308 29.4811 101.337 30.9867 101.328 32.7731L101.585 32.8353C101.623 30.8766 100.109 29.2299 98.1338 29.1327C96.7469 29.0576 95.4321 29.7978 94.7675 31.0175L95.0249 31.0797L95.034 31.0899Z" fill="#BC986D"/>
<path d="M103.464 32.9273C103.46 32.4538 103.398 31.9965 103.287 31.5462C103.279 31.5167 103.271 31.4873 103.254 31.4478C103.157 31.0948 103.011 30.7489 102.845 30.4211C102.811 30.342 102.766 30.272 102.722 30.202C102.651 30.0822 102.571 29.9523 102.49 29.8417C102.275 29.5403 102.039 29.2571 101.772 29.0012C101.424 28.6539 101.015 28.3613 100.574 28.1153C100.171 27.8907 99.7351 27.7319 99.2781 27.6105C98.8108 27.4983 98.3506 27.4348 97.8964 27.4392C97.3844 27.4404 96.8977 27.5107 96.417 27.6489C96.0641 27.7457 95.7182 27.8912 95.3905 28.057C95.1916 28.1621 94.9918 28.2865 94.7919 28.4109C94.4814 28.6163 94.2073 28.8622 93.9515 29.1285C93.8399 29.2287 93.7566 29.3401 93.6632 29.4606C93.4459 29.729 93.2468 30.0176 93.0751 30.3367L94.047 30.5825C94.047 30.5825 94.191 30.6 94.2589 30.594C94.4434 30.575 94.6118 30.4972 94.7357 30.3493C94.9936 30.0445 95.2788 29.7702 95.6187 29.5568C95.7395 29.4667 95.8785 29.397 96.0083 29.3171C96.4852 29.0724 96.9963 28.9069 97.5398 28.8591C97.9961 28.8161 98.4675 28.8513 98.9347 28.9635C99.4019 29.0757 99.8356 29.2731 100.217 29.5352C100.264 29.5667 100.32 29.6084 100.366 29.6398C100.747 29.9213 101.085 30.2776 101.355 30.6592C101.435 30.7891 101.514 30.919 101.584 31.058C101.724 31.336 101.834 31.6221 101.924 31.9264C101.949 31.9953 101.964 32.0734 101.97 32.1414C101.988 32.1617 101.977 32.1901 101.985 32.2195C102.025 32.3858 102.133 32.5269 102.273 32.6214C102.328 32.663 102.404 32.6865 102.48 32.7099L103.433 32.9546L103.464 32.9273Z" fill="#BC986D"/>
<path d="M105.43 32.2804C105.217 31.0421 105.731 29.7563 106.737 28.9994C108.186 27.9188 110.22 28.1834 111.363 29.5588L111.6 29.4558C110.388 27.922 108.163 27.6278 106.594 28.7985C105.486 29.6272 104.937 31.0366 105.202 32.3936L105.45 32.2814L105.43 32.2804Z" fill="#BC986D"/>
<path d="M113.091 28.3194C112.782 27.955 112.442 27.6371 112.07 27.3659C112.052 27.3456 112.014 27.3242 111.986 27.3131C111.688 27.1038 111.36 26.9218 111.02 26.7875C110.934 26.7539 110.869 26.7213 110.783 26.6878C110.651 26.6419 110.509 26.586 110.366 26.5493C110.014 26.4433 109.65 26.385 109.285 26.3459C108.795 26.3097 108.291 26.3404 107.803 26.4299C107.354 26.5215 106.912 26.6618 106.475 26.87C106.039 27.0782 105.659 27.328 105.305 27.6276C104.92 27.9545 104.581 28.3322 104.298 28.7322C104.089 29.03 103.907 29.3582 103.773 29.6987C103.685 29.9064 103.605 30.1242 103.535 30.3522C103.429 30.7039 103.371 31.0678 103.332 31.4327C103.314 31.5767 103.316 31.7216 103.318 31.8666C103.319 32.2144 103.358 32.5642 103.416 32.9151L104.318 32.4906C104.378 32.4552 104.438 32.4198 104.488 32.3743C104.631 32.2467 104.689 32.0664 104.689 31.8828C104.691 31.4773 104.742 31.084 104.859 30.704C104.905 30.552 104.961 30.4101 105.017 30.2683C105.218 29.7768 105.522 29.32 105.91 28.9354C106.237 28.6053 106.619 28.3362 107.055 28.128C107.491 27.9198 107.951 27.7998 108.399 27.7467C108.466 27.7408 108.515 27.7337 108.583 27.7278C109.068 27.696 109.538 27.7505 109.994 27.891C110.146 27.9379 110.279 27.9837 110.43 28.0499C110.723 28.1719 110.985 28.3214 111.236 28.4992C111.292 28.5408 111.357 28.5926 111.413 28.6343C111.431 28.6546 111.449 28.6749 111.467 28.6952C111.607 28.7897 111.778 28.8376 111.953 28.8277C112.021 28.8217 112.099 28.8066 112.169 28.7621L113.051 28.3366L113.091 28.3194Z" fill="#BC986D"/>
<path d="M116.505 28.7554C117.299 27.8228 118.558 27.4079 119.741 27.6844C121.439 28.0854 122.498 29.7558 122.185 31.4484L122.411 31.5573C122.79 29.7136 121.643 27.8839 119.783 27.4452C118.476 27.1331 117.108 27.6096 116.26 28.6455L116.486 28.7543L116.505 28.7554Z" fill="#BC986D"/>
<path d="M124.166 31.9613C124.239 31.5113 124.262 31.0682 124.228 30.6221C124.22 30.5927 124.222 30.5542 124.214 30.5247C124.175 30.1749 124.117 29.824 124.01 29.4802C123.995 29.4021 123.96 29.3229 123.935 29.254C123.885 29.116 123.833 28.9973 123.783 28.8594C123.636 28.5327 123.459 28.2333 123.253 27.942C122.974 27.5503 122.645 27.2041 122.265 26.9034C121.923 26.6241 121.54 26.3812 121.125 26.2042C120.7 26.017 120.283 25.8785 119.852 25.8069C119.373 25.7231 118.882 25.7061 118.406 25.748C118.056 25.787 117.705 25.8453 117.362 25.9523C117.146 26.0178 116.939 26.0936 116.741 26.1795C116.414 26.326 116.115 26.503 115.824 26.7094C115.713 26.7903 115.592 26.8804 115.491 26.9715C115.237 27.1992 114.993 27.4178 114.785 27.6963L115.662 28.1011C115.662 28.1011 115.795 28.147 115.852 28.1501C116.035 28.1696 116.202 28.1111 116.343 28.0028C116.627 27.7477 116.966 27.5536 117.322 27.399C117.451 27.3383 117.589 27.2878 117.736 27.2475C118.227 27.1002 118.752 27.032 119.271 27.0794C119.713 27.1227 120.152 27.2237 120.576 27.4301C121 27.6173 121.372 27.8886 121.694 28.1861C121.73 28.2267 121.776 28.2775 121.812 28.3181C122.122 28.6632 122.391 29.0449 122.562 29.4598C122.623 29.5886 122.673 29.7266 122.714 29.8737C122.805 30.1587 122.866 30.4518 122.879 30.7519C122.885 30.8198 122.891 30.8878 122.887 30.9648C122.886 30.9841 122.894 31.0135 122.893 31.0328C122.913 31.198 122.982 31.3563 123.101 31.469C123.147 31.5198 123.222 31.5625 123.287 31.595L124.155 31.9897L124.166 31.9613Z" fill="#BC986D"/>
<path d="M126.151 31.6824C126.169 30.4567 126.867 29.3354 127.959 28.7956C129.517 28.0203 131.406 28.6345 132.242 30.1382L132.487 30.0838C131.601 28.4228 129.551 27.7517 127.844 28.5866C126.653 29.179 125.881 30.4218 125.887 31.755L126.141 31.6915L126.151 31.6824Z" fill="#BC986D"/>
<path d="M134.105 29.2731C133.875 28.8743 133.605 28.5119 133.303 28.1962C133.285 28.1759 133.258 28.1454 133.24 28.1251C132.993 27.8703 132.715 27.6428 132.416 27.4527C132.352 27.4009 132.277 27.3582 132.211 27.3257C132.089 27.2515 131.968 27.1773 131.845 27.1224C131.525 26.9698 131.193 26.8457 130.851 26.7498C130.394 26.6285 129.914 26.5639 129.422 26.5663C128.987 26.5717 128.539 26.6248 128.088 26.7549C127.647 26.8759 127.232 27.0466 126.844 27.2671C126.415 27.5047 126.042 27.8032 125.705 28.1424C125.45 28.3894 125.232 28.677 125.033 28.9656C124.907 29.152 124.8 29.3394 124.703 29.537C124.55 29.8571 124.417 30.1783 124.33 30.531C124.294 30.6739 124.267 30.8077 124.24 30.9415C124.184 31.2668 124.146 31.6125 124.157 31.9511L125.088 31.7021C125.088 31.7021 125.216 31.6607 125.267 31.6152C125.417 31.5171 125.512 31.358 125.541 31.1857C125.609 30.8127 125.735 30.4428 125.908 30.1045C125.973 29.9728 126.047 29.8512 126.132 29.7206C126.406 29.2911 126.775 28.9054 127.206 28.6099C127.567 28.359 127.983 28.1691 128.434 28.0389C128.886 27.9088 129.332 27.875 129.784 27.9091C129.842 27.9123 129.899 27.9154 129.966 27.9287C130.427 27.9922 130.873 28.1226 131.278 28.328C131.409 28.3931 131.531 28.4673 131.662 28.5517C131.914 28.7102 132.145 28.9062 132.355 29.1204C132.401 29.1712 132.447 29.222 132.501 29.2829C132.519 29.3032 132.538 29.3235 132.547 29.3336C132.656 29.4554 132.816 29.5317 132.99 29.5411C133.067 29.5453 133.135 29.5393 133.203 29.5141L134.115 29.264L134.105 29.2731Z" fill="#BC986D"/>
<path d="M26.0631 100.215C25.375 99.1827 25.3027 97.8362 25.9124 96.739C26.769 95.182 28.7132 94.5918 30.2938 95.3728L30.4684 95.1794C28.7582 94.2948 26.6476 94.9243 25.6966 96.6211C25.033 97.8216 25.1173 99.3039 25.8976 100.418L26.0722 100.225L26.0631 100.215Z" fill="#BC986D"/>
<path d="M31.3371 93.5748C30.9227 93.3785 30.4768 93.2288 30.0369 93.1471C30.0086 93.1359 29.97 93.1338 29.9417 93.1226C29.5879 93.0551 29.222 93.0353 28.8641 93.0449C28.7769 93.0499 28.6998 93.0457 28.6126 93.0507C28.4768 93.0626 28.3216 93.0735 28.1756 93.0946C27.8156 93.1428 27.4627 93.2396 27.128 93.3567C26.6746 93.5253 26.2282 93.7426 25.8264 94.03C25.455 94.29 25.1292 94.6008 24.8205 94.9511C24.521 95.3116 24.2681 95.7036 24.0729 96.0987C23.8554 96.5505 23.7048 97.0157 23.621 97.4941C23.5537 97.8478 23.5339 98.2138 23.5436 98.5717C23.5504 98.8039 23.5674 99.027 23.6036 99.2511C23.6518 99.6111 23.7487 99.964 23.8659 100.299C23.9164 100.437 23.9669 100.575 24.0276 100.704C24.165 101.02 24.3421 101.319 24.5394 101.601L25.169 100.852C25.2197 100.807 25.2522 100.741 25.2655 100.674C25.3326 100.504 25.3237 100.31 25.255 100.152C25.0912 99.7855 24.9761 99.4123 24.9289 99.033C24.9078 98.887 24.8969 98.7319 24.8859 98.5767C24.8754 98.0546 24.9623 97.5184 25.1535 97.0168C25.3112 96.6003 25.5459 96.1881 25.8454 95.8276C26.1551 95.458 26.5093 95.1584 26.8979 94.9379C26.9385 94.9015 27.0075 94.8763 27.0572 94.85C27.4752 94.6215 27.9265 94.4913 28.3939 94.4201C28.54 94.399 28.6951 94.3881 28.8401 94.3862C29.1402 94.3735 29.4473 94.4094 29.7534 94.4646C29.8203 94.4779 29.8963 94.5014 29.9632 94.5146C29.9916 94.5258 30.0109 94.5269 30.0392 94.5381C30.2014 94.5758 30.3768 94.5467 30.527 94.4486C30.5778 94.403 30.6478 94.3585 30.6894 94.3028L31.3088 93.5636L31.3371 93.5748Z" fill="#BC986D"/>
<path d="M31.6106 91.5515C30.4127 91.1969 29.5005 90.201 29.277 88.9718C28.9558 87.2255 30.061 85.537 31.783 85.128L31.7873 84.8674C29.9011 85.2773 28.672 87.1136 29.0427 89.0171C29.2986 90.3639 30.3029 91.4421 31.6164 91.8029L31.6208 91.5424L31.6106 91.5515Z" fill="#BC986D"/>
<path d="M31.4307 83.0612C30.9804 83.1721 30.5463 83.3418 30.1486 83.5521C30.1283 83.5703 30.0888 83.5875 30.0593 83.5955C29.7408 83.7715 29.4495 83.9779 29.1755 84.2238C29.1146 84.2785 29.0537 84.3332 28.9928 84.3878C28.8812 84.488 28.7797 84.5791 28.6862 84.6996C28.4497 84.9669 28.2313 85.2545 28.0403 85.5726C27.7955 85.994 27.5972 86.4469 27.4749 86.9232C27.3548 87.3611 27.3015 87.8121 27.2857 88.2846C27.28 88.7479 27.3321 89.2143 27.4441 89.6454C27.5632 90.1251 27.741 90.5887 27.9889 91.0078C28.1649 91.3264 28.3713 91.6177 28.6173 91.8918C28.7722 92.0644 28.918 92.2268 29.0932 92.3812C29.3606 92.6178 29.6482 92.8362 29.9663 93.0273C30.0879 93.1015 30.2196 93.1666 30.3513 93.2316C30.6522 93.3831 30.9836 93.5073 31.3171 93.593L31.3315 92.6086C31.3315 92.6086 31.3195 92.4727 31.2942 92.4037C31.2356 92.2363 31.1081 92.0942 30.948 92.0179C30.5903 91.844 30.2641 91.6235 29.9786 91.3666C29.8682 91.264 29.7578 91.1615 29.6677 91.0407C29.3124 90.6448 29.0473 90.1861 28.8726 89.6647C28.7312 89.2418 28.6497 88.7834 28.6563 88.3008C28.663 87.8182 28.7548 87.3692 28.9034 86.9426C28.9258 86.8858 28.9482 86.8291 28.9705 86.7724C29.1485 86.3377 29.4116 85.9366 29.7202 85.5863C29.8228 85.4759 29.9253 85.3655 30.0461 85.2755C30.2694 85.0751 30.5301 84.896 30.7888 84.7555C30.8487 84.7201 30.9177 84.6948 30.9775 84.6594C30.9978 84.6412 31.0273 84.6331 31.0465 84.6342C31.1956 84.5553 31.3094 84.4166 31.3663 84.2555C31.3898 84.1795 31.403 84.1126 31.4072 84.0355L31.4206 83.0704L31.4307 83.0612Z" fill="#BC986D"/>
<path d="M23.2615 118.859C22.4422 118.11 22.1182 116.953 22.4166 115.897C22.8464 114.375 24.3916 113.483 25.9088 113.826L26.0166 113.619C24.3585 113.201 22.654 114.181 22.1977 115.837C21.8738 117.007 22.2403 118.273 23.1436 119.075L23.2513 118.869L23.2615 118.859Z" fill="#BC986D"/>
<path d="M26.4596 112.03C26.0491 111.94 25.6548 111.909 25.2482 111.926C25.2188 111.934 25.1904 111.923 25.161 111.931C24.8416 111.942 24.5202 111.993 24.2159 112.082C24.147 112.108 24.0689 112.123 23.9999 112.148C23.8823 112.18 23.7636 112.232 23.6358 112.273C23.3396 112.392 23.0515 112.541 22.7816 112.71C22.4214 112.941 22.0875 113.223 21.7991 113.555C21.5321 113.85 21.3107 114.195 21.1267 114.562C20.9326 114.938 20.7963 115.317 20.7177 115.699C20.6269 116.128 20.5838 116.57 20.6187 116.997C20.6305 117.317 20.6808 117.638 20.7706 117.942C20.818 118.138 20.8847 118.335 20.9524 118.512C21.0717 118.809 21.2203 119.097 21.3893 119.367C21.4612 119.467 21.5421 119.578 21.614 119.678C21.7941 119.92 22.0139 120.144 22.2346 120.349L22.634 119.569C22.634 119.569 22.6788 119.456 22.6921 119.389C22.7105 119.226 22.6712 119.059 22.5811 118.939C22.3645 118.656 22.1875 118.357 22.0692 118.042C22.0278 117.914 21.9763 117.795 21.945 117.658C21.8341 117.208 21.7921 116.732 21.8566 116.253C21.9067 115.86 22.0248 115.46 22.219 115.084C22.4131 114.709 22.6629 114.374 22.9481 114.1C22.9887 114.064 23.0293 114.027 23.0699 113.991C23.3846 113.708 23.7437 113.496 24.1383 113.343C24.257 113.292 24.3848 113.251 24.5217 113.219C24.7864 113.147 25.049 113.113 25.3299 113.099C25.3978 113.093 25.4556 113.096 25.5235 113.09C25.5428 113.091 25.562 113.092 25.5914 113.084C25.7364 113.082 25.8845 113.023 25.9871 112.912C26.0378 112.867 26.0693 112.82 26.1018 112.754L26.4911 111.983L26.4596 112.03Z" fill="#BC986D"/>
<path d="M26.2857 110.243C25.1878 110.184 24.191 109.502 23.7432 108.492C23.1063 107.048 23.7188 105.362 25.1086 104.664L25.0531 104.439C23.5162 105.177 22.8286 107.004 23.5261 108.577C24.0175 109.676 25.1074 110.421 26.3219 110.467L26.2664 110.242L26.2857 110.243Z" fill="#BC986D"/>
<path d="M24.3987 102.955C24.0315 103.138 23.6997 103.381 23.3962 103.635L23.3353 103.689C23.0917 103.908 22.8856 104.148 22.6977 104.408C22.6561 104.464 22.6043 104.529 22.5718 104.594C22.4986 104.697 22.4346 104.809 22.3706 104.922C22.2202 105.203 22.0982 105.496 21.9944 105.809C21.8661 106.218 21.7946 106.648 21.7707 107.091C21.7591 107.487 21.7951 107.894 21.8888 108.305C21.9826 108.716 22.1261 109.1 22.3102 109.448C22.5114 109.836 22.7624 110.197 23.0641 110.513C23.2828 110.757 23.5228 110.963 23.7831 111.151C23.9412 111.266 24.1184 111.381 24.2967 111.478C24.5784 111.629 24.8712 111.751 25.1844 111.854C25.308 111.89 25.4317 111.926 25.5553 111.961C25.8513 112.026 26.1584 112.062 26.4666 112.078L26.271 111.228C26.271 111.228 26.2387 111.11 26.1931 111.059C26.1041 110.919 25.9744 110.815 25.8214 110.788C25.4778 110.711 25.1464 110.587 24.8466 110.416C24.7341 110.352 24.6125 110.278 24.5102 110.205C24.1284 109.943 23.7993 109.597 23.5413 109.187C23.3278 108.847 23.1742 108.471 23.0804 108.061C22.9866 107.65 22.9699 107.243 23.011 106.84C23.0141 106.782 23.0263 106.734 23.0294 106.677C23.0999 106.265 23.2373 105.867 23.4405 105.501C23.5045 105.389 23.5787 105.267 23.6518 105.165C23.8082 104.951 23.993 104.749 24.196 104.566C24.2467 104.521 24.2873 104.484 24.3381 104.439C24.3584 104.421 24.3685 104.412 24.3888 104.393C24.5005 104.293 24.5757 104.152 24.5931 104.008C24.6063 103.942 24.6003 103.874 24.5842 103.815L24.3977 102.974L24.3987 102.955Z" fill="#BC986D"/>
<path d="M26.0479 111.244L90.4352 119.278L25.8839 112.675L26.0479 111.244Z" fill="#BC986D"/>
<path d="M30.4689 92.4845L93.2074 114.444L30.009 93.8505L30.4689 92.4845Z" fill="#BC986D"/>
<path d="M40.3737 74.3016L95.6487 109.65L39.6117 75.5354L40.3737 74.3016Z" fill="#BC986D"/>
<path d="M52.7252 58.743L98.9302 105.568L51.6938 59.7787L52.7252 58.743Z" fill="#BC986D"/>
<path d="M67.398 45.4639L103.022 102.409L66.1773 46.2479L67.398 45.4639Z" fill="#BC986D"/>
<path d="M84.4341 36.9008L107.884 100.373L83.0831 37.4169L84.4341 36.9008Z" fill="#BC986D"/>
<path d="M103.919 32.1889L112.975 99.4704L102.478 32.4007L103.919 32.1889Z" fill="#BC986D"/>
<path d="M124.84 31.4666L118.213 100.672L123.399 31.3306L124.84 31.4666Z" fill="#BC986D"/>
<path d="M124.817 129.388C121.568 127.483 118.578 125.254 115.65 122.951L116.448 121.758C118.212 122.723 119.956 123.706 121.666 124.774C122.526 125.303 123.366 125.851 124.205 126.399C125.024 126.984 125.873 127.542 126.67 128.165C125.712 127.833 124.788 127.416 123.852 127.046C122.937 126.639 122.013 126.222 121.109 125.787C119.301 124.916 117.516 123.989 115.762 123.015L116.561 121.822C119.447 124.181 122.262 126.622 124.827 129.378" fill="#BC986D"/>
<path d="M127.995 124.904C123.914 124.625 119.925 123.917 115.951 123.103L116.363 121.724C120.184 123.226 123.962 124.821 127.582 126.833C123.547 125.89 119.67 124.531 115.836 123.077L116.248 121.699C120.21 122.56 124.147 123.537 127.994 124.923" fill="#BC986D"/>
<path d="M127.755 123.085C125.779 123.538 123.828 123.548 121.881 123.462C119.947 123.329 118 123.078 116.096 122.386C118.071 121.933 120.023 121.923 121.969 122.009C123.913 122.152 125.851 122.392 127.755 123.085Z" fill="#BC986D"/>
<path d="M114.946 133.499C114.772 129.733 115.011 126.017 115.366 122.308L116.794 122.327C116.947 124.335 117.061 126.341 117.098 128.342C117.121 129.348 117.125 130.352 117.109 131.356C117.064 132.368 117.068 133.373 116.966 134.381C116.719 133.392 116.58 132.4 116.382 131.404C116.223 130.41 116.064 129.416 115.944 128.424C115.694 126.431 115.493 124.43 115.349 122.433L116.778 122.452C116.366 126.158 115.848 129.849 114.927 133.498" fill="#BC986D"/>
<path d="M120.449 133.729C118.468 130.155 116.883 126.408 115.406 122.639L116.79 122.221C117.617 126.245 118.326 130.282 118.606 134.412C117.203 130.521 116.22 126.527 115.364 122.511L116.758 122.103C118.186 125.899 119.515 129.728 120.45 133.71" fill="#BC986D"/>
<path d="M121.846 132.53C120.386 131.128 119.316 129.486 118.343 127.811C117.402 126.108 116.559 124.353 116.086 122.376C117.547 123.778 118.617 125.42 119.589 127.096C120.531 128.798 121.373 130.553 121.846 132.53Z" fill="#BC986D"/>
<path d="M123.383 130.73C121.683 129.653 120.318 128.275 119.024 126.833C117.761 125.364 116.598 123.823 115.759 121.991C117.459 123.068 118.834 124.437 120.118 125.888C121.371 127.366 122.544 128.897 123.383 130.73Z" fill="#BC986D"/>
</g>
<defs>
<clipPath id="clip0_3_521">
<rect width="146.039" height="106.975" fill="white" transform="translate(0.668945 97.5463) rotate(-41.9087)"/>
</clipPath>
</defs>
</svg>
