<svg width="317" height="238" viewBox="0 0 317 238" fill="none" xmlns="http://www.w3.org/2000/svg">
<g clip-path="url(#clip0_3_424)">
<path d="M316.984 234.88C314.812 234.896 312.658 234.797 310.487 234.583C307.855 234.318 305.223 233.873 302.625 233.245C300.026 232.618 297.444 231.809 294.927 230.818C290.371 229.035 285.963 226.658 281.802 223.653C277.657 220.649 274.005 217.215 270.864 213.434C267.393 209.257 264.548 204.651 262.377 199.797C260.748 196.182 259.515 192.417 258.627 188.571C258.084 186.144 257.689 183.7 257.426 181.224C257.278 179.771 257.196 178.335 257.146 176.866C256.357 176.156 255.748 175.281 255.32 174.29V174.274C253.676 170.295 251.455 166.597 248.774 163.295C247.738 162.007 246.62 160.785 245.452 159.613C241.356 155.568 236.488 152.316 231.076 150.087C226.52 148.222 221.586 147.083 216.405 146.835C211.207 146.587 206.191 147.231 201.47 148.651C200.829 148.849 200.204 149.047 199.579 149.278C194.694 150.995 190.203 153.538 186.256 156.757C184.973 157.797 183.756 158.92 182.604 160.092C180.269 162.469 178.196 165.094 176.453 167.95C176.042 168.627 175.631 169.304 175.252 170.014C175.121 170.262 174.989 170.493 174.857 170.741C173.903 172.309 172.374 173.498 170.597 174.009C169.824 174.241 169.018 174.34 168.18 174.29L157.653 173.778C159.15 168.925 161.239 164.351 163.854 160.125C164.035 159.828 164.232 159.514 164.43 159.217C166.568 155.882 169.035 152.778 171.765 149.955C172.407 149.295 173.048 148.651 173.723 148.024C174.874 146.95 176.042 145.927 177.259 144.953C180.318 142.476 183.641 140.33 187.144 138.514C191.848 136.071 196.931 134.255 202.243 133.149C207.03 132.158 212.03 131.745 217.145 131.993C222.26 132.241 227.178 133.132 231.866 134.585C237.047 136.203 241.915 138.498 246.373 141.387C249.695 143.533 252.788 146.009 255.6 148.75C257.36 150.467 259.038 152.316 260.567 154.231C260.6 153.818 260.617 153.406 260.633 152.993C260.683 151.342 260.633 149.675 260.518 148.024C260.057 142.278 258.511 136.616 255.863 131.366C253.643 126.958 250.649 122.863 246.883 119.264C243.116 115.665 238.889 112.859 234.415 110.844C233.807 110.564 233.198 110.316 232.59 110.068C227.787 108.153 222.721 107.13 217.622 106.965C215.977 106.915 214.332 106.965 212.671 107.08C209.365 107.344 206.092 107.972 202.901 108.979C202.144 109.226 194.2 112.693 193.098 113.833C192.851 114.08 192.588 114.344 192.342 114.592C189.529 117.382 186.453 119.875 183.18 122.038C182.423 122.533 181.65 123.028 180.861 123.491C179.512 124.3 178.147 125.042 176.733 125.736C173.213 127.486 169.512 128.856 165.696 129.863C160.581 131.234 155.235 131.894 149.807 131.811C144.922 131.745 139.955 131.052 135.021 129.698C130.086 128.344 125.464 126.396 121.221 123.953C116.5 121.262 112.24 117.943 108.523 114.163C105.743 111.34 103.26 108.252 101.105 104.95C99.7564 102.87 98.5228 100.708 97.4208 98.4788C95.6938 94.9458 94.3122 91.2311 93.2924 87.3844C92.8812 85.8491 92.5522 84.3137 92.2726 82.7453C92.2726 82.7288 92.2726 82.7123 92.2726 82.6958C91.8285 80.2194 91.5489 77.6934 91.4338 75.151C91.4338 75.151 91.4338 75.151 91.4338 75.1344C91.3022 74.5566 91.2529 73.9458 91.2693 73.3349V73.3184C91.4173 69.0094 90.9239 64.7335 89.8548 60.6061C89.4436 59.0047 88.9502 57.4198 88.358 55.8844C86.3021 50.5024 83.2263 45.5 79.213 41.2241C75.8412 37.625 71.8115 34.5377 67.1896 32.1439C62.5678 29.7665 57.7321 28.2642 52.8635 27.5873C52.2056 27.5047 51.5477 27.4222 50.8898 27.3727C45.7416 26.8939 40.5934 27.3396 35.659 28.6274C34.2939 28.9741 32.9616 29.3868 31.6293 29.8821C31.399 29.9646 31.1852 30.0472 30.9549 30.1462C27.8463 31.3349 24.8857 32.8703 22.106 34.7194C21.4481 35.1651 20.7901 35.6274 20.1651 36.1061C19.9513 36.2712 19.7375 36.4363 19.5237 36.6014C18.0105 37.625 16.1354 38.0708 14.2932 37.8066C13.5037 37.691 12.7307 37.4434 11.9905 37.0472L2.61523 32.1934C5.98705 28.3962 9.78651 25.1109 13.8985 22.3538C14.1945 22.1557 14.4906 21.9576 14.7867 21.7594C18.1091 19.6132 21.6454 17.8137 25.2969 16.3939C26.1522 16.0637 27.0074 15.75 27.8792 15.4528C29.3595 14.9576 30.8562 14.5118 32.3695 14.1321C36.1689 13.158 40.0835 12.5802 44.031 12.3986C49.3272 12.1344 54.6892 12.5967 59.9854 13.8019C64.7553 14.8915 69.4594 16.592 74.0155 18.9528C78.5551 21.2972 82.6671 24.1698 86.335 27.4387C90.3811 31.0708 93.8681 35.1816 96.73 39.6557C98.8682 42.9906 100.661 46.5401 102.076 50.2052C102.98 52.5165 103.737 54.8939 104.345 57.3043C105.299 61.1344 105.891 65.0472 106.089 69.0094C106.171 70.5944 106.171 72.1793 106.122 73.7477C106.122 73.7642 106.122 73.7807 106.122 73.8137C106.089 75.0354 106.73 79.1627 106.911 80.0873V80.1038C107.668 84.3467 109.017 88.4411 110.925 92.2547C111.665 93.7406 112.487 95.1769 113.375 96.5637C116.484 101.401 120.547 105.644 125.349 108.995C129.396 111.802 133.968 113.981 138.968 115.368C143.985 116.738 149.034 117.2 153.936 116.837C154.594 116.788 155.252 116.722 155.909 116.639C161.041 116.028 165.992 114.526 170.532 112.231C172.012 111.488 173.443 110.679 174.825 109.771C176.173 108.896 177.473 107.955 178.723 106.932C177.341 106.568 175.992 106.139 174.644 105.66C170.943 104.356 167.357 102.689 163.953 100.658C161.666 99.3043 159.479 97.7854 157.39 96.1179C155.301 94.4505 153.294 92.6344 151.436 90.6533C148.047 87.1038 145.054 83.0755 142.554 78.5849C140.054 74.1109 138.195 69.4387 136.945 64.7005C135.547 59.434 134.922 54.0684 134.988 48.7524C135.037 44.7901 135.498 40.8444 136.32 36.9977C136.846 34.5708 137.521 32.1769 138.327 29.8326C139.626 26.1179 141.304 22.5189 143.31 19.1014C144.116 17.7477 144.972 16.4269 145.893 15.1227C145.893 15.1227 145.909 15.0896 145.926 15.0731C148.08 12.0189 150.531 9.14624 153.278 6.52124L158.525 15.9151C158.887 16.6085 159.133 17.3184 159.265 18.0613C159.627 20.026 159.166 22.0401 158.048 23.6415C158.048 23.6415 158.048 23.6415 158.048 23.658C155.564 27.1745 153.607 31.0047 152.242 35.0495C151.715 36.6179 151.255 38.2194 150.909 39.8208C149.659 45.4505 149.478 51.3278 150.482 57.1061C151.321 61.9599 152.982 66.7642 155.515 71.3208C158.048 75.8774 161.272 79.7901 164.956 83.059C165.449 83.4882 165.959 83.934 166.485 84.3302C170.515 87.5826 175.055 90.059 179.874 91.7099C181.437 92.2382 183.016 92.7005 184.627 93.0637C187.868 93.7901 191.19 94.1533 194.529 94.1368C195.319 94.1368 196.108 94.1038 196.914 94.0543C197.194 94.0378 197.457 94.0212 197.736 94.0047C198.51 94.0047 207.408 92.5849 211.191 92.2712C212.095 92.1887 213.017 92.1227 213.921 92.1061C215.484 92.0401 217.046 92.0401 218.609 92.1061C222.54 92.2547 226.438 92.7995 230.287 93.7241C235.435 94.9788 240.452 96.9269 245.189 99.5849C249.465 101.979 253.511 104.95 257.196 108.5C260.896 112.05 264.038 115.946 266.637 120.123C269.499 124.745 271.686 129.682 273.166 134.783C274.285 138.597 275.009 142.493 275.338 146.422C275.551 148.899 275.617 151.392 275.518 153.868C275.37 157.814 274.828 161.743 273.907 165.59C273.528 167.125 273.101 168.644 272.607 170.146C272.607 170.163 272.607 170.179 272.591 170.196C272.492 170.493 272.393 170.774 272.295 171.071C271.949 172.111 271.571 173.134 271.143 174.158C271.538 175.446 271.884 176.75 272.18 178.071C272.196 178.484 272.229 178.913 272.262 179.325C272.295 179.573 272.311 179.837 272.344 180.085C272.509 181.736 272.788 183.37 273.134 184.988C274.367 190.618 276.686 196.017 280.025 200.837C282.838 204.882 286.358 208.547 290.568 211.585C294.779 214.639 299.351 216.835 304.072 218.222C304.713 218.403 305.338 218.585 305.996 218.734C309.648 219.625 313.382 220.038 317.099 220.005" stroke="#BC986D" stroke-width="1.8" stroke-miterlimit="10"/>
<path d="M238.807 219.906C238.939 221.309 238.906 222.696 238.692 224.05C238.692 224.149 238.659 224.248 238.642 224.347C238.445 225.42 238.149 226.476 237.771 227.5C237.672 227.731 237.573 227.979 237.475 228.21C237.294 228.606 237.113 229.002 236.899 229.382C236.389 230.34 235.764 231.248 235.073 232.09C234.136 233.212 233.034 234.236 231.8 235.094C230.682 235.87 229.465 236.514 228.132 236.993C226.8 237.488 225.451 237.785 224.103 237.917C222.606 238.066 221.126 238 219.678 237.752C218.609 237.554 217.556 237.274 216.537 236.877C215.895 236.63 215.27 236.333 214.678 236.019C213.724 235.507 212.819 234.88 211.98 234.186C211.652 233.906 211.323 233.608 211.01 233.311C210.27 232.585 209.596 231.792 209.003 230.917L211.783 229.894C211.98 229.828 212.194 229.795 212.408 229.778C212.951 229.778 213.494 229.976 213.872 230.356C214.711 231.198 215.681 231.891 216.717 232.453C217.112 232.667 217.54 232.866 217.951 233.031C219.431 233.625 221.01 233.922 222.639 233.906C224.004 233.906 225.386 233.641 226.734 233.146C228.083 232.651 229.3 231.941 230.336 231.066C230.484 230.95 230.616 230.835 230.748 230.703C231.8 229.745 232.688 228.606 233.346 227.351C233.56 226.955 233.757 226.526 233.922 226.113C234.267 225.255 234.498 224.363 234.646 223.455C234.679 223.241 234.711 223.026 234.728 222.795C234.728 222.712 234.728 222.646 234.744 222.564C234.827 222.052 235.073 221.59 235.485 221.276C235.649 221.144 235.846 221.028 236.077 220.946L238.823 219.939L238.807 219.906Z" fill="#C19664"/>
<path d="M190.565 180.432C190.417 179.028 190.466 177.642 190.68 176.288C190.68 176.189 190.713 176.09 190.73 175.991C190.927 174.917 191.207 173.861 191.601 172.837C191.7 172.606 191.782 172.375 191.897 172.144C192.078 171.748 192.259 171.351 192.473 170.972C192.983 170.014 193.608 169.106 194.299 168.264C195.236 167.142 196.338 166.118 197.572 165.276C198.69 164.5 199.907 163.856 201.24 163.377C202.572 162.882 203.921 162.585 205.269 162.453C206.766 162.304 208.247 162.37 209.694 162.618C210.78 162.8 211.832 163.097 212.835 163.493C213.477 163.741 214.102 164.038 214.694 164.351C215.648 164.863 216.553 165.491 217.392 166.184C217.721 166.465 218.049 166.762 218.362 167.059C219.102 167.785 219.776 168.578 220.369 169.453L217.589 170.476C217.392 170.542 217.178 170.575 216.964 170.592C216.421 170.592 215.878 170.394 215.5 170.014C214.645 169.172 213.691 168.479 212.655 167.917C212.26 167.703 211.832 167.505 211.421 167.34C209.941 166.745 208.362 166.448 206.733 166.465C205.368 166.481 203.987 166.729 202.638 167.224C201.289 167.719 200.072 168.429 199.036 169.304C198.888 169.42 198.756 169.552 198.625 169.667C197.572 170.625 196.684 171.764 196.026 173.019C195.812 173.415 195.615 173.844 195.45 174.257C195.105 175.116 194.874 176.007 194.726 176.915C194.693 177.13 194.661 177.344 194.644 177.575C194.644 177.642 194.644 177.724 194.628 177.807C194.545 178.318 194.299 178.781 193.888 179.111C193.723 179.243 193.526 179.359 193.295 179.441L190.549 180.448L190.565 180.432Z" fill="#C19664"/>
<path d="M208.97 230.868C207.868 231.743 206.684 232.453 205.434 232.998C205.352 233.031 205.253 233.08 205.154 233.113C204.151 233.542 203.098 233.856 202.029 234.071C201.783 234.12 201.536 234.17 201.289 234.203C200.861 234.269 200.434 234.318 200.006 234.351C198.921 234.434 197.835 234.401 196.749 234.269C195.302 234.087 193.855 233.708 192.473 233.113C191.223 232.585 190.022 231.891 188.904 231.033C187.769 230.175 186.799 229.2 185.96 228.127C185.022 226.939 184.282 225.651 183.723 224.297C183.295 223.29 182.983 222.233 182.769 221.16C182.637 220.483 182.539 219.807 182.489 219.113C182.407 218.024 182.44 216.934 182.571 215.844C182.621 215.415 182.703 214.986 182.785 214.557C182.999 213.55 183.312 212.542 183.723 211.568L186.075 213.368C186.239 213.5 186.387 213.665 186.502 213.83C186.799 214.292 186.914 214.854 186.799 215.382C186.552 216.554 186.486 217.743 186.568 218.915C186.601 219.377 186.667 219.823 186.749 220.269C187.045 221.837 187.654 223.34 188.542 224.71C189.282 225.849 190.236 226.889 191.371 227.764C192.522 228.639 193.756 229.283 195.055 229.696C195.236 229.745 195.401 229.811 195.582 229.861C196.963 230.241 198.378 230.373 199.792 230.257C200.253 230.224 200.697 230.158 201.141 230.075C202.046 229.91 202.917 229.63 203.773 229.25C203.97 229.167 204.167 229.068 204.365 228.969C204.431 228.936 204.496 228.903 204.562 228.87C205.023 228.656 205.566 228.639 206.043 228.788C206.256 228.854 206.454 228.969 206.635 229.101L208.954 230.868H208.97Z" fill="#C19664"/>
<path d="M190.565 180.432C189.167 180.481 187.802 180.712 186.486 181.092C186.387 181.125 186.289 181.142 186.206 181.175C185.17 181.505 184.167 181.934 183.213 182.462C182.983 182.578 182.769 182.71 182.555 182.842C182.193 183.073 181.831 183.304 181.469 183.568C180.598 184.212 179.775 184.939 179.035 185.748C178.048 186.837 177.193 188.059 176.519 189.396C175.91 190.601 175.433 191.922 175.137 193.309C174.841 194.696 174.709 196.083 174.759 197.436C174.808 198.939 175.071 200.408 175.515 201.811C175.844 202.851 176.272 203.858 176.798 204.816C177.127 205.41 177.505 205.988 177.9 206.55C178.542 207.425 179.265 208.25 180.071 208.993C180.4 209.29 180.729 209.571 181.075 209.835C181.881 210.462 182.769 211.04 183.706 211.502L184.348 208.597C184.381 208.382 184.397 208.167 184.364 207.969C184.298 207.425 184.019 206.929 183.591 206.583C182.654 205.856 181.831 204.998 181.14 204.04C180.877 203.677 180.631 203.281 180.4 202.884C179.627 201.498 179.101 199.946 178.904 198.344C178.739 196.991 178.788 195.587 179.101 194.184C179.413 192.781 179.956 191.476 180.663 190.321C180.762 190.156 180.861 190.007 180.96 189.858C181.765 188.67 182.769 187.663 183.92 186.837C184.282 186.573 184.677 186.325 185.071 186.094C185.877 185.649 186.716 185.285 187.604 185.021C187.818 184.955 188.032 184.906 188.246 184.856C188.312 184.84 188.394 184.823 188.46 184.807C188.953 184.658 189.364 184.344 189.644 183.899C189.759 183.717 189.841 183.502 189.891 183.271L190.516 180.415L190.565 180.432Z" fill="#C19664"/>
<path d="M220.369 169.453C221.471 168.578 222.655 167.868 223.905 167.323C223.987 167.274 224.086 167.241 224.185 167.208C225.188 166.778 226.241 166.465 227.31 166.25C227.556 166.2 227.803 166.151 228.05 166.118C228.477 166.052 228.905 166.002 229.333 165.969C230.418 165.887 231.504 165.92 232.589 166.052C234.037 166.233 235.484 166.613 236.866 167.208C238.116 167.736 239.317 168.429 240.435 169.288C241.57 170.146 242.54 171.12 243.379 172.193C244.317 173.382 245.057 174.67 245.616 176.024C246.044 177.031 246.356 178.087 246.57 179.16C246.702 179.837 246.8 180.514 246.85 181.208C246.932 182.297 246.899 183.387 246.768 184.476C246.718 184.906 246.636 185.335 246.554 185.764C246.34 186.771 246.027 187.778 245.633 188.752L243.281 186.953C243.116 186.821 242.968 186.656 242.853 186.491C242.557 186.028 242.442 185.467 242.557 184.939C242.804 183.766 242.869 182.578 242.787 181.406C242.754 180.943 242.688 180.498 242.606 180.052C242.31 178.483 241.702 176.981 240.813 175.611C240.073 174.472 239.119 173.432 237.984 172.557C236.833 171.682 235.599 171.038 234.3 170.625C234.119 170.575 233.955 170.509 233.774 170.46C232.392 170.08 230.978 169.948 229.563 170.064C229.102 170.097 228.658 170.163 228.214 170.245C227.31 170.427 226.438 170.691 225.583 171.071C225.385 171.153 225.188 171.252 224.991 171.351C224.925 171.384 224.859 171.417 224.793 171.45C224.333 171.665 223.79 171.682 223.313 171.533C223.099 171.467 222.902 171.351 222.721 171.219L220.402 169.453H220.369Z" fill="#C19664"/>
<path d="M238.791 219.889C240.189 219.84 241.554 219.608 242.87 219.229C242.968 219.196 243.067 219.163 243.149 219.146C244.185 218.816 245.189 218.387 246.143 217.858C246.357 217.743 246.587 217.611 246.801 217.479C247.163 217.248 247.524 217.016 247.87 216.752C248.742 216.108 249.564 215.382 250.304 214.573C251.291 213.483 252.146 212.262 252.821 210.925C253.429 209.719 253.906 208.399 254.202 207.012C254.515 205.625 254.63 204.238 254.581 202.884C254.531 201.382 254.268 199.913 253.824 198.509C253.495 197.469 253.067 196.462 252.541 195.505C252.212 194.91 251.834 194.316 251.439 193.771C250.797 192.896 250.074 192.071 249.268 191.328C248.955 191.031 248.61 190.75 248.265 190.486C247.459 189.858 246.57 189.281 245.633 188.802L244.991 191.708C244.958 191.922 244.942 192.137 244.975 192.335C245.041 192.88 245.32 193.375 245.748 193.722C246.686 194.448 247.508 195.307 248.199 196.264C248.462 196.644 248.709 197.024 248.939 197.42C249.712 198.807 250.238 200.358 250.436 201.96C250.6 203.314 250.551 204.717 250.238 206.137C249.926 207.54 249.383 208.844 248.676 210C248.577 210.165 248.478 210.314 248.38 210.462C247.574 211.651 246.57 212.675 245.419 213.5C245.041 213.764 244.662 214.012 244.268 214.243C243.462 214.689 242.623 215.052 241.735 215.316C241.521 215.382 241.307 215.432 241.093 215.481C241.027 215.498 240.945 215.514 240.879 215.531C240.386 215.679 239.958 215.993 239.695 216.439C239.58 216.62 239.498 216.835 239.448 217.066L238.823 219.922L238.791 219.889Z" fill="#C19664"/>
<path d="M231.438 213.88C231.537 214.854 231.504 215.828 231.356 216.769C231.356 216.835 231.34 216.901 231.323 216.967C231.192 217.71 230.994 218.453 230.715 219.163C230.649 219.328 230.583 219.493 230.517 219.641C230.386 219.922 230.254 220.186 230.123 220.45C229.761 221.111 229.333 221.755 228.856 222.333C228.198 223.125 227.442 223.818 226.586 224.413C225.813 224.941 224.958 225.403 224.037 225.733C223.116 226.064 222.178 226.278 221.241 226.377C220.204 226.476 219.168 226.443 218.165 226.262C217.425 226.13 216.685 225.932 215.977 225.651C215.533 225.469 215.106 225.271 214.678 225.057C214.02 224.693 213.379 224.264 212.803 223.785C212.573 223.587 212.342 223.389 212.129 223.174C211.619 222.663 211.142 222.118 210.73 221.507L212.671 220.797C212.819 220.748 212.951 220.731 213.099 220.715C213.477 220.715 213.856 220.863 214.119 221.111C214.711 221.689 215.369 222.184 216.092 222.564C216.372 222.712 216.652 222.844 216.948 222.96C217.968 223.373 219.086 223.587 220.204 223.571C221.142 223.571 222.112 223.389 223.05 223.042C223.987 222.696 224.826 222.2 225.55 221.606C225.649 221.524 225.747 221.441 225.846 221.358C226.586 220.682 227.195 219.906 227.655 219.031C227.803 218.75 227.935 218.469 228.05 218.172C228.28 217.578 228.461 216.95 228.56 216.323C228.593 216.175 228.609 216.026 228.626 215.861C228.626 215.811 228.626 215.762 228.626 215.712C228.675 215.366 228.856 215.035 229.136 214.804C229.251 214.705 229.382 214.623 229.547 214.573L231.455 213.88H231.438Z" fill="#8C1812"/>
<path d="M197.901 186.424C197.802 185.45 197.835 184.476 197.983 183.535C197.983 183.469 198 183.403 198.016 183.337C198.148 182.578 198.345 181.851 198.625 181.141C198.691 180.976 198.756 180.811 198.822 180.646C198.937 180.366 199.085 180.101 199.217 179.837C199.579 179.177 200.006 178.533 200.483 177.955C201.141 177.163 201.898 176.469 202.753 175.875C203.526 175.33 204.382 174.884 205.303 174.554C206.224 174.224 207.161 174.009 208.099 173.91C209.135 173.811 210.171 173.844 211.175 174.026C211.931 174.158 212.655 174.373 213.362 174.637C213.806 174.818 214.234 175.016 214.662 175.248C215.319 175.611 215.961 176.04 216.537 176.519C216.767 176.717 216.997 176.915 217.211 177.13C217.721 177.641 218.198 178.186 218.609 178.797L216.668 179.507C216.52 179.557 216.389 179.573 216.241 179.573C215.862 179.573 215.5 179.441 215.221 179.177C214.629 178.599 213.971 178.104 213.247 177.724C212.967 177.575 212.671 177.443 212.392 177.328C211.372 176.915 210.253 176.7 209.135 176.717C208.198 176.717 207.227 176.899 206.29 177.245C205.352 177.592 204.513 178.087 203.789 178.682C203.691 178.764 203.592 178.847 203.493 178.929C202.753 179.606 202.145 180.382 201.684 181.257C201.536 181.538 201.405 181.818 201.289 182.116C201.059 182.71 200.878 183.337 200.78 183.965C200.747 184.113 200.73 184.262 200.714 184.427C200.714 184.476 200.714 184.526 200.714 184.592C200.664 184.939 200.483 185.269 200.204 185.483C200.089 185.583 199.957 185.665 199.793 185.715L197.885 186.408L197.901 186.424Z" fill="#8C1812"/>
<path d="M210.714 221.491C209.957 222.101 209.118 222.597 208.247 222.976C208.181 223.009 208.115 223.026 208.049 223.059C207.342 223.356 206.618 223.571 205.878 223.719C205.697 223.752 205.533 223.785 205.352 223.818C205.056 223.868 204.76 223.901 204.464 223.917C203.707 223.967 202.95 223.95 202.194 223.851C201.191 223.719 200.187 223.455 199.217 223.042C198.345 222.679 197.523 222.2 196.733 221.59C195.944 220.995 195.269 220.318 194.677 219.575C194.036 218.75 193.509 217.858 193.115 216.917C192.819 216.208 192.605 215.481 192.457 214.738C192.358 214.276 192.292 213.797 192.259 213.318C192.21 212.559 192.226 211.799 192.325 211.04C192.358 210.743 192.407 210.446 192.473 210.149C192.621 209.439 192.835 208.745 193.115 208.068L194.759 209.323C194.875 209.422 194.973 209.521 195.056 209.653C195.269 209.967 195.335 210.363 195.269 210.726C195.105 211.535 195.039 212.361 195.105 213.186C195.121 213.5 195.171 213.814 195.236 214.127C195.45 215.217 195.861 216.257 196.47 217.215C196.98 218.007 197.654 218.733 198.444 219.328C199.233 219.939 200.105 220.384 201.01 220.665C201.125 220.698 201.256 220.748 201.371 220.781C202.325 221.045 203.312 221.127 204.299 221.045C204.612 221.028 204.924 220.979 205.237 220.913C205.862 220.797 206.47 220.599 207.062 220.335C207.194 220.269 207.342 220.203 207.474 220.137C207.523 220.12 207.572 220.087 207.605 220.071C207.934 219.922 208.296 219.906 208.641 220.021C208.789 220.071 208.921 220.137 209.053 220.236L210.665 221.474L210.714 221.491Z" fill="#8C1812"/>
<path d="M197.901 186.424C196.931 186.458 195.977 186.623 195.072 186.887C195.006 186.903 194.94 186.92 194.875 186.953C194.151 187.184 193.444 187.481 192.786 187.861C192.638 187.943 192.473 188.042 192.325 188.125C192.062 188.29 191.815 188.455 191.569 188.62C190.96 189.066 190.401 189.578 189.875 190.139C189.184 190.899 188.592 191.741 188.115 192.682C187.687 193.524 187.358 194.432 187.144 195.389C186.93 196.347 186.848 197.321 186.881 198.262C186.914 199.302 187.095 200.325 187.407 201.316C187.638 202.042 187.934 202.736 188.312 203.413C188.542 203.825 188.805 204.238 189.085 204.618C189.529 205.229 190.039 205.807 190.598 206.318C190.829 206.516 191.059 206.715 191.289 206.913C191.848 207.358 192.457 207.738 193.115 208.068L193.559 206.054C193.592 205.906 193.592 205.757 193.575 205.625C193.526 205.245 193.329 204.899 193.033 204.667C192.375 204.156 191.815 203.561 191.338 202.901C191.157 202.637 190.977 202.373 190.829 202.092C190.286 201.134 189.924 200.061 189.792 198.939C189.677 197.998 189.71 197.024 189.94 196.033C190.154 195.059 190.532 194.151 191.026 193.342C191.092 193.226 191.157 193.127 191.24 193.012C191.799 192.186 192.506 191.476 193.296 190.915C193.559 190.733 193.822 190.552 194.102 190.403C194.661 190.09 195.253 189.842 195.862 189.66C196.01 189.611 196.158 189.578 196.306 189.545C196.355 189.545 196.404 189.512 196.454 189.512C196.799 189.413 197.095 189.182 197.276 188.884C197.358 188.752 197.424 188.604 197.457 188.455L197.901 186.474V186.424Z" fill="#8C1812"/>
<path d="M218.625 178.797C219.398 178.186 220.22 177.691 221.092 177.311C221.158 177.278 221.224 177.262 221.273 177.229C221.98 176.932 222.704 176.717 223.444 176.568C223.625 176.535 223.79 176.502 223.971 176.469C224.267 176.42 224.563 176.387 224.859 176.37C225.615 176.321 226.372 176.337 227.129 176.436C228.132 176.568 229.135 176.833 230.106 177.245C230.977 177.609 231.8 178.087 232.589 178.698C233.379 179.292 234.053 179.986 234.645 180.712C235.287 181.538 235.813 182.429 236.208 183.37C236.504 184.08 236.718 184.807 236.866 185.55C236.964 186.012 237.03 186.491 237.063 186.969C237.112 187.729 237.096 188.488 236.997 189.248C236.964 189.545 236.915 189.842 236.849 190.139C236.701 190.849 236.487 191.542 236.208 192.219L234.563 190.965C234.448 190.866 234.349 190.767 234.267 190.651C234.053 190.337 233.987 189.941 234.053 189.578C234.218 188.769 234.283 187.943 234.201 187.118C234.185 186.804 234.135 186.491 234.07 186.177C233.856 185.087 233.445 184.047 232.836 183.09C232.326 182.297 231.652 181.571 230.862 180.976C230.073 180.366 229.201 179.92 228.296 179.639C228.181 179.606 228.05 179.557 227.935 179.524C226.981 179.259 225.994 179.177 225.007 179.259C224.694 179.276 224.382 179.325 224.069 179.392C223.444 179.507 222.836 179.705 222.244 179.969C222.112 180.035 221.964 180.101 221.832 180.167C221.783 180.184 221.734 180.217 221.701 180.234C221.372 180.382 221.01 180.399 220.665 180.283C220.517 180.234 220.385 180.167 220.253 180.068L218.641 178.83L218.625 178.797Z" fill="#8C1812"/>
<path d="M231.438 213.863C232.408 213.83 233.362 213.665 234.283 213.401C234.349 213.384 234.415 213.368 234.481 213.335C235.205 213.104 235.912 212.807 236.57 212.427C236.718 212.344 236.882 212.245 237.03 212.163C237.293 211.998 237.54 211.833 237.77 211.651C238.379 211.205 238.938 210.693 239.465 210.132C240.155 209.373 240.747 208.531 241.224 207.59C241.652 206.748 241.981 205.84 242.195 204.882C242.409 203.925 242.491 202.95 242.458 202.009C242.425 200.969 242.244 199.946 241.932 198.955C241.701 198.229 241.405 197.535 241.027 196.859C240.797 196.446 240.534 196.033 240.254 195.653C239.81 195.042 239.3 194.465 238.741 193.953C238.527 193.755 238.28 193.557 238.05 193.359C237.491 192.913 236.866 192.533 236.224 192.186L235.78 194.2C235.747 194.349 235.747 194.498 235.78 194.63C235.83 195.009 236.01 195.356 236.307 195.587C236.964 196.099 237.524 196.693 238.001 197.354C238.182 197.618 238.363 197.882 238.511 198.163C239.053 199.12 239.415 200.193 239.547 201.316C239.662 202.257 239.629 203.231 239.415 204.222C239.201 205.196 238.823 206.104 238.33 206.913C238.264 207.028 238.198 207.127 238.116 207.243C237.557 208.068 236.849 208.778 236.06 209.34C235.797 209.521 235.533 209.703 235.254 209.851C234.695 210.165 234.103 210.413 233.494 210.594C233.346 210.644 233.198 210.677 233.05 210.71C233.001 210.71 232.951 210.726 232.902 210.743C232.556 210.842 232.26 211.073 232.079 211.37C231.997 211.502 231.931 211.651 231.899 211.8L231.454 213.781L231.438 213.863Z" fill="#8C1812"/>
<path d="M64.0643 95.375C64.1959 96.7783 64.163 98.1651 63.9492 99.5189C63.9492 99.6179 63.9163 99.717 63.8998 99.816C63.7189 100.889 63.4228 101.946 63.0281 102.969C62.9294 103.2 62.8307 103.432 62.732 103.663C62.5511 104.059 62.3702 104.455 62.1563 104.835C61.6465 105.792 61.0214 106.7 60.3306 107.542C59.3931 108.665 58.2911 109.689 57.0575 110.547C55.939 111.323 54.7219 111.967 53.3896 112.446C52.0573 112.941 50.7086 113.238 49.3599 113.37C47.8631 113.519 46.3828 113.453 44.9354 113.205C43.8663 113.007 42.8136 112.726 41.7939 112.33C41.1524 112.083 40.5274 111.785 39.9353 111.472C38.9813 110.96 38.0766 110.333 37.2378 109.639C36.9088 109.358 36.5799 109.061 36.2674 108.764C35.5272 108.038 34.8529 107.245 34.2607 106.37L37.0404 105.347C37.2378 105.281 37.4516 105.248 37.6655 105.231C38.2082 105.231 38.7346 105.429 39.1293 105.809C39.9682 106.651 40.9386 107.344 41.9748 107.906C42.386 108.12 42.7972 108.318 43.2248 108.483C44.7051 109.078 46.2841 109.375 47.9125 109.358C49.2777 109.358 50.6593 109.094 52.008 108.599C53.3567 108.104 54.5739 107.394 55.6101 106.519C55.7581 106.403 55.8897 106.271 56.0213 106.156C57.074 105.198 57.9621 104.059 58.6201 102.804C58.8339 102.408 59.0313 101.979 59.1957 101.566C59.5411 100.708 59.7879 99.816 59.9194 98.8915C59.9523 98.6769 59.9852 98.4623 60.0017 98.2311C60.0017 98.1486 60.0017 98.0825 60.0181 98C60.1004 97.4882 60.3471 97.0259 60.7583 96.7123C60.9228 96.5802 61.1201 96.4646 61.3504 96.3821L64.0972 95.375H64.0643Z" fill="#C19664"/>
<path d="M15.8229 55.9009C15.6749 54.4976 15.7242 53.1109 15.938 51.7571C15.938 51.658 15.9709 51.559 15.9874 51.4599C16.1847 50.3703 16.4808 49.3302 16.8591 48.3066C16.9578 48.0755 17.04 47.8443 17.1552 47.6132C17.3361 47.217 17.517 46.8208 17.7308 46.441C18.2407 45.4835 18.8657 44.5755 19.5566 43.7335C20.4941 42.6109 21.5961 41.5873 22.8297 40.7288C23.9481 39.9528 25.1653 39.309 26.4976 38.8302C27.8298 38.3349 29.1786 38.0377 30.5273 37.9057C32.024 37.7571 33.5044 37.8231 34.9518 38.0708C36.0373 38.2689 37.09 38.5495 38.0933 38.9458C38.7348 39.1934 39.3598 39.4906 39.9519 39.8208C40.9059 40.3326 41.8105 40.9599 42.6494 41.6533C42.9783 41.934 43.3073 42.2311 43.6198 42.5283C44.36 43.2547 45.0343 44.0472 45.6264 44.9222L42.8468 45.9458C42.6494 46.0118 42.4356 46.0448 42.2217 46.0613C41.679 46.0613 41.1362 45.8632 40.7579 45.4835C39.9026 44.6415 38.9486 43.9481 37.9124 43.3868C37.5176 43.1722 37.09 42.9741 36.6623 42.809C35.182 42.2146 33.603 41.9175 31.9747 41.934C30.6095 41.934 29.2279 42.1981 27.8792 42.6934C26.5305 43.1887 25.3133 43.8986 24.2771 44.7736C24.1291 44.8892 23.9975 45.0047 23.8659 45.1368C22.8132 46.0943 21.925 47.2335 21.2671 48.4882C21.0533 48.901 20.8559 49.3137 20.6915 49.7264C20.346 50.5849 20.0993 51.4764 19.9677 52.4009C19.9349 52.6156 19.902 52.8302 19.8855 53.0613C19.8855 53.1274 19.8855 53.2099 19.8691 53.2925C19.7868 53.8042 19.5401 54.2665 19.1289 54.5802C18.9644 54.7123 18.7671 54.8278 18.5368 54.9104L15.8064 55.9175L15.8229 55.9009Z" fill="#C19664"/>
<path d="M34.2447 106.337C33.1427 107.212 31.9584 107.922 30.7084 108.467C30.6097 108.5 30.5275 108.55 30.4288 108.583C29.4254 109.012 28.3728 109.325 27.3037 109.54C27.057 109.59 26.8102 109.639 26.5635 109.672C26.1359 109.738 25.7082 109.788 25.2806 109.821C24.195 109.903 23.1095 109.87 22.0239 109.738C20.5765 109.557 19.1291 109.177 17.7474 108.583C16.4974 108.054 15.2967 107.361 14.1783 106.502C13.0598 105.644 12.0729 104.67 11.2341 103.597C10.2966 102.408 9.55641 101.12 8.99718 99.7665C8.56953 98.7594 8.25702 97.7028 8.0432 96.6297C7.91162 95.9528 7.81293 95.2759 7.76359 94.5825C7.68135 93.4929 7.71424 92.4033 7.84583 91.3137C7.89517 90.8844 7.97741 90.4552 8.05965 90.0259C8.27347 89.0188 8.58598 88.0118 8.98073 87.0377L11.3328 88.8372C11.4973 88.9693 11.6453 89.1344 11.7604 89.2995C12.0565 89.7618 12.1716 90.3231 12.0565 90.8514C11.8098 92.0236 11.744 93.2122 11.8262 94.3844C11.8591 94.8467 11.9249 95.2924 12.0071 95.7382C12.3032 97.3066 12.9118 98.8089 13.8 100.179C14.5401 101.318 15.4941 102.358 16.6454 103.233C17.7968 104.108 19.0304 104.752 20.3298 105.165C20.5107 105.215 20.6752 105.264 20.8561 105.314C22.2377 105.693 23.6687 105.825 25.0668 105.71C25.5273 105.677 25.9714 105.611 26.4155 105.528C27.3201 105.347 28.1919 105.083 29.0471 104.703C29.2445 104.62 29.4419 104.521 29.6393 104.422C29.7051 104.389 29.7709 104.356 29.8366 104.323C30.2972 104.108 30.8235 104.092 31.317 104.241C31.5308 104.307 31.7281 104.422 31.9091 104.554L34.2282 106.321L34.2447 106.337Z" fill="#C19664"/>
<path d="M15.8229 55.9009C14.4249 55.9505 13.0597 56.1816 11.7439 56.5778C11.6452 56.6108 11.5629 56.6439 11.4642 56.6604C10.428 56.9906 9.42471 57.4198 8.47073 57.9481C8.25691 58.0637 8.02664 58.1958 7.81281 58.3278C7.45096 58.559 7.08911 58.8066 6.7437 59.0542C5.87196 59.6981 5.04957 60.4245 4.30942 61.2335C3.32254 62.3231 2.46725 63.5448 1.79289 64.8821C1.18432 66.0873 0.70733 67.408 0.411268 68.7948C0.0987579 70.1816 -0.0163773 71.5684 0.0329664 72.9222C0.08231 74.4245 0.345476 75.8939 0.789569 77.2972C1.11853 78.3373 1.54617 79.3443 2.0725 80.3019C2.40146 80.8962 2.77976 81.4906 3.17451 82.0354C3.81598 82.9104 4.53969 83.7358 5.34563 84.4788C5.65814 84.7759 6.00355 85.0566 6.34895 85.3207C7.1549 85.9481 8.04308 86.5259 8.98061 87.0047L9.62208 84.099C9.67142 83.8844 9.67142 83.6698 9.65498 83.4717C9.58918 82.9269 9.30957 82.4316 8.88193 82.0849C7.9444 81.3585 7.122 80.5 6.43119 79.5424C6.16803 79.1792 5.92131 78.783 5.69104 78.3868C4.91799 77 4.39165 75.4646 4.19428 73.8467C4.0298 72.4929 4.07915 71.0896 4.39166 69.6863C4.70416 68.283 5.24694 66.9788 5.9542 65.8231C6.05289 65.6745 6.15158 65.5094 6.25027 65.3608C7.05621 64.1722 8.05953 63.1486 9.21088 62.3231C9.58918 62.059 9.96749 61.8113 10.3622 61.5802C11.1682 61.1344 12.007 60.7712 12.8952 60.5071C13.109 60.441 13.3229 60.3915 13.5367 60.342C13.6025 60.3255 13.6847 60.309 13.7505 60.2924C14.2439 60.1439 14.6551 59.8302 14.9347 59.3844C15.0499 59.2028 15.1321 58.9882 15.1815 58.7571L15.8065 55.9009H15.8229Z" fill="#C19664"/>
<path d="M45.6265 44.9222C46.7285 44.0472 47.9127 43.3373 49.1628 42.7925C49.245 42.7594 49.3437 42.7099 49.4424 42.6769C50.4457 42.2476 51.4984 41.934 52.5675 41.7193C52.8142 41.6698 53.0609 41.6203 53.3076 41.5873C53.7353 41.5212 54.1629 41.4717 54.5906 41.4387C55.6761 41.3561 56.7617 41.3892 57.8472 41.5212C59.2947 41.7028 60.7421 42.0825 62.1237 42.6769C63.3737 43.2052 64.5744 43.8986 65.6929 44.7571C66.8278 45.6156 67.7982 46.5896 68.6371 47.6627C69.5746 48.8514 70.3147 50.1392 70.8904 51.4929C71.3181 52.5 71.6306 53.5566 71.8444 54.6297C71.976 55.3066 72.0747 55.9835 72.124 56.6769C72.2062 57.7665 72.1733 58.8561 72.0418 59.9458C71.9924 60.375 71.9102 60.8042 71.8279 61.2335C71.6141 62.2406 71.3016 63.2476 70.9069 64.2217L68.5548 62.4222C68.3903 62.2901 68.2423 62.125 68.1272 61.9599C67.8311 61.4976 67.716 60.9363 67.8311 60.408C68.0778 59.2358 68.1436 58.0472 68.0614 56.875C68.0285 56.4127 67.9627 55.967 67.8804 55.5212C67.5844 53.9528 66.9758 52.4505 66.0876 51.0802C65.3475 49.941 64.3935 48.9009 63.2586 48.0259C62.1237 47.1509 60.8737 46.5071 59.5743 46.0943C59.3933 46.0448 59.2289 45.9953 59.0479 45.9292C57.6663 45.5495 56.2518 45.4175 54.8373 45.533C54.3767 45.566 53.9326 45.6321 53.4886 45.7146C52.5839 45.8962 51.7122 46.1604 50.8569 46.5401C50.6595 46.6226 50.4621 46.7217 50.2648 46.8208C50.199 46.8538 50.1332 46.8868 50.0674 46.9198C49.6069 47.1344 49.0805 47.1509 48.5871 47.0024C48.3733 46.9363 48.1759 46.8208 47.995 46.6887L45.6758 44.9222H45.6265Z" fill="#C19664"/>
<path d="M64.0479 95.3585C65.4459 95.3089 66.8111 95.0778 68.1269 94.6816C68.2256 94.6486 68.3079 94.6321 68.4065 94.599C69.4428 94.2689 70.4461 93.8396 71.4001 93.3113C71.6303 93.1957 71.8442 93.0637 72.058 92.9316C72.4198 92.7005 72.7817 92.4693 73.1435 92.2052C74.0153 91.5613 74.8377 90.8349 75.5778 90.0259C76.5647 88.9363 77.42 87.7146 78.0943 86.3773C78.7029 85.1722 79.1799 83.8514 79.476 82.4646C79.772 81.0778 79.9036 79.691 79.8543 78.3372C79.8049 76.8349 79.5418 75.3656 79.0977 73.9622C78.7687 72.9222 78.3411 71.9151 77.8147 70.9575C77.4858 70.3632 77.1075 69.7854 76.7127 69.224C76.0713 68.349 75.3475 67.5236 74.5416 66.7806C74.2126 66.4835 73.8837 66.2028 73.5383 65.9387C72.7323 65.2948 71.8442 64.7335 70.9066 64.2547L70.2652 67.1604C70.2323 67.375 70.2158 67.5896 70.2487 67.7877C70.3145 68.3325 70.5941 68.8278 71.0218 69.1745C71.9593 69.9009 72.7817 70.7594 73.4725 71.717C73.7357 72.0967 73.9824 72.4764 74.2126 72.8726C74.9857 74.2594 75.512 75.7948 75.7094 77.4127C75.8739 78.7665 75.8245 80.1698 75.512 81.5896C75.1995 82.9929 74.6567 84.2972 73.9495 85.4528C73.8508 85.6014 73.7521 85.7665 73.6534 85.9151C72.8475 87.1038 71.8441 88.1273 70.6928 88.9363C70.3145 89.2005 69.9362 89.4481 69.5414 89.6792C68.7355 90.125 67.8967 90.4882 67.0085 90.7523C66.7947 90.8184 66.5808 90.8679 66.367 90.9174C66.3012 90.9339 66.219 90.9505 66.1532 90.967C65.6597 91.1155 65.2321 91.4292 64.9689 91.875C64.8538 92.0566 64.7716 92.2712 64.7222 92.5023L64.0972 95.3585H64.0479Z" fill="#C19664"/>
<path d="M56.6957 89.3491C56.7944 90.3231 56.7615 91.2972 56.6134 92.2382C56.6134 92.3042 56.597 92.3703 56.5805 92.4363C56.449 93.1958 56.2351 93.9222 55.972 94.6321C55.9062 94.7972 55.8404 94.9623 55.7746 95.1274C55.643 95.408 55.5114 95.6722 55.3798 95.9363C55.018 96.5967 54.5904 97.2406 54.1134 97.8184C53.4554 98.6109 52.6988 99.3042 51.8436 99.8986C51.0705 100.443 50.2152 100.889 49.2941 101.219C48.373 101.55 47.4355 101.764 46.498 101.863C45.4618 101.962 44.4256 101.929 43.4222 101.748C42.6656 101.616 41.9419 101.401 41.2347 101.137C40.7906 100.972 40.3629 100.757 39.9353 100.542C39.2774 100.179 38.6359 99.75 38.0602 99.2712C37.83 99.0731 37.5997 98.875 37.3859 98.6604C36.876 98.1486 36.399 97.6038 35.9878 96.9929L37.9286 96.283C38.0767 96.2335 38.2083 96.217 38.3563 96.217C38.7346 96.217 39.0964 96.3491 39.3761 96.6132C39.9682 97.191 40.6261 97.6863 41.3498 98.066C41.6294 98.2146 41.9255 98.3467 42.2051 98.4623C43.2249 98.875 44.3433 99.0896 45.4618 99.0731C46.3993 99.0731 47.3697 98.8915 48.3073 98.5448C49.2448 98.1981 50.0836 97.7028 50.8073 97.1085C50.906 97.0259 51.0047 96.9434 51.1034 96.8609C51.8436 96.184 52.4521 95.408 52.9127 94.533C53.0607 94.2524 53.1923 93.9717 53.3074 93.6745C53.5377 93.0802 53.7186 92.4528 53.8173 91.8255C53.8337 91.6769 53.8666 91.5283 53.8831 91.3632C53.8831 91.3137 53.8831 91.2642 53.8831 91.1981C53.9324 90.8514 54.1134 90.5212 54.393 90.3066C54.5081 90.2076 54.6397 90.125 54.8042 90.0755L56.7121 89.3821L56.6957 89.3491Z" fill="#8C1812"/>
<path d="M23.1751 61.8939C23.0764 60.9198 23.1093 59.9457 23.2573 59.0047C23.2573 58.9387 23.2738 58.8726 23.2902 58.8066C23.4218 58.0472 23.6192 57.3207 23.8988 56.6108C23.9646 56.4457 24.0304 56.2807 24.0961 56.1156C24.2113 55.8349 24.3429 55.5707 24.4909 55.3066C24.8527 54.6462 25.2804 54.0023 25.7574 53.4245C26.4153 52.6321 27.1719 51.9387 28.0272 51.3443C28.8002 50.7995 29.6555 50.3538 30.5766 50.0236C31.4977 49.6769 32.4352 49.4788 33.3728 49.3797C34.409 49.2807 35.4452 49.3137 36.4485 49.4953C37.2051 49.6273 37.9288 49.842 38.6361 50.1061C39.0802 50.2877 39.5078 50.4858 39.9355 50.717C40.5934 51.0802 41.2348 51.5094 41.8105 51.9882C42.0408 52.1863 42.2711 52.3844 42.4849 52.599C42.9948 53.0943 43.4718 53.6556 43.8829 54.2665L41.9421 54.9764C41.7941 55.0259 41.6625 55.0424 41.5145 55.0589C41.1362 55.0589 40.7743 54.9104 40.4947 54.6627C39.9026 54.0849 39.2446 53.5896 38.5209 53.2099C38.2413 53.0613 37.9453 52.9292 37.6492 52.8137C36.6294 52.4009 35.5274 52.1863 34.3925 52.2028C33.455 52.2028 32.4846 52.3844 31.547 52.7311C30.6095 53.0778 29.7707 53.5731 29.047 54.1674C28.9483 54.25 28.8496 54.3325 28.7509 54.4151C28.0107 55.092 27.4022 55.8679 26.9416 56.7429C26.7936 57.0236 26.662 57.3207 26.5469 57.6014C26.3166 58.1957 26.1357 58.8231 26.037 59.4505C26.0205 59.599 25.9877 59.7476 25.9712 59.9127C25.9712 59.9623 25.9712 60.0118 25.9712 60.0613C25.9219 60.408 25.7409 60.7382 25.4613 60.9693C25.3462 61.0684 25.1982 61.1509 25.0501 61.2005L23.1422 61.8939H23.1751Z" fill="#8C1812"/>
<path d="M35.9717 96.9599C35.2151 97.5707 34.3763 98.066 33.5045 98.4457C33.4387 98.4788 33.3729 98.4953 33.3071 98.5283C32.5999 98.8255 31.8762 99.0401 31.136 99.1887C30.9551 99.2217 30.7906 99.2547 30.6097 99.2877C30.3136 99.3372 30.0176 99.3703 29.7215 99.3868C28.9649 99.4363 28.2083 99.4198 27.4517 99.3207C26.4484 99.1887 25.4451 98.9245 24.4746 98.5118C23.6029 98.1486 22.7805 97.6698 21.991 97.059C21.2015 96.4646 20.5271 95.7877 19.935 95.0448C19.2936 94.2193 18.7672 93.3278 18.3725 92.3868C18.0764 91.6769 17.8626 90.9505 17.7146 90.2075C17.6159 89.7453 17.5501 89.2665 17.5172 88.7877C17.4678 88.0283 17.4843 87.2689 17.583 86.5094C17.6159 86.2123 17.6652 85.9151 17.731 85.6179C17.879 84.908 18.0929 84.2146 18.3725 83.5377L20.0173 84.7924C20.1324 84.8915 20.2311 84.9906 20.3133 85.1226C20.5271 85.4363 20.5929 85.8325 20.5271 86.1957C20.3627 87.0047 20.2969 87.8302 20.3791 88.6556C20.3956 88.9693 20.4449 89.283 20.5107 89.5967C20.7245 90.6863 21.1357 91.7264 21.7443 92.6839C22.2542 93.4764 22.9285 94.2028 23.718 94.7972C24.5075 95.408 25.3793 95.8538 26.2839 96.1344C26.399 96.1674 26.5306 96.217 26.6458 96.25C27.5997 96.5141 28.5866 96.5967 29.5735 96.5306C29.886 96.5141 30.1985 96.4646 30.511 96.3986C31.136 96.283 31.7446 96.0849 32.3367 95.8207C32.4683 95.7547 32.6163 95.6887 32.7479 95.6226C32.7973 95.6061 32.8466 95.5731 32.8959 95.5566C33.2249 95.408 33.5868 95.3915 33.9322 95.5071C34.0802 95.5566 34.2118 95.6226 34.3434 95.7217L35.9553 96.9599H35.9717Z" fill="#8C1812"/>
<path d="M23.1584 61.8939C22.188 61.9269 21.234 62.092 20.3294 62.3561C20.2636 62.3726 20.1978 62.3891 20.132 62.4222C19.4083 62.6533 18.7011 62.9505 18.0431 63.3302C17.8951 63.4127 17.7306 63.5118 17.5826 63.5943C17.3194 63.7594 17.0727 63.9245 16.826 64.0896C16.2174 64.5354 15.6582 65.0472 15.1319 65.6085C14.4411 66.3679 13.8489 67.2099 13.3719 68.1509C12.9443 68.9929 12.6153 69.9009 12.4015 70.875C12.1877 71.8325 12.1055 72.8066 12.1383 73.7476C12.1712 74.7877 12.3522 75.8113 12.6647 76.7854C12.895 77.5118 13.191 78.2052 13.5693 78.8821C13.7996 79.2948 14.0628 79.7075 14.3424 80.0872C14.7865 80.6981 15.2963 81.2759 15.8556 81.7877C16.0694 81.9858 16.3161 82.184 16.5464 82.3821C17.1056 82.8278 17.7142 83.2075 18.3721 83.5542L18.8162 81.5401C18.8491 81.3915 18.8491 81.2429 18.8326 81.1108C18.7833 80.7311 18.5859 80.3844 18.2899 80.1533C17.6319 79.6415 17.0727 79.0472 16.5957 78.3868C16.4148 78.1226 16.2339 77.8585 16.0858 77.5778C15.5431 76.6038 15.1812 75.5472 15.0496 74.4245C14.9345 73.4835 14.9674 72.5094 15.1977 71.5189C15.4115 70.5448 15.7898 69.6368 16.2832 68.8278C16.349 68.7123 16.4148 68.6132 16.497 68.4976C17.0563 67.6722 17.7635 66.9623 18.553 66.4009C18.8162 66.2193 19.0794 66.0377 19.359 65.8891C19.9182 65.5755 20.5103 65.3278 21.1189 65.1462C21.2669 65.0967 21.415 65.0637 21.563 65.0306C21.6123 65.0306 21.6617 65.0141 21.711 64.9976C22.0564 64.8986 22.3525 64.684 22.5334 64.3703C22.6157 64.2382 22.6814 64.0896 22.7143 63.941L23.1584 61.9599V61.8939Z" fill="#8C1812"/>
<path d="M43.8828 54.2665C44.6394 53.6556 45.4783 53.1604 46.35 52.7806C46.4158 52.7476 46.4816 52.7311 46.5474 52.6981C47.2546 52.4009 47.9783 52.1863 48.7185 52.0377C48.8994 52.0047 49.0639 51.9717 49.2448 51.9387C49.5409 51.8891 49.8369 51.8561 50.133 51.8396C50.8896 51.7901 51.6462 51.8066 52.4028 51.9056C53.4061 52.0377 54.4095 52.3019 55.3799 52.7146C56.2516 53.0778 57.074 53.5566 57.8635 54.1674C58.653 54.7618 59.3274 55.4552 59.9195 56.1816C60.561 57.0071 61.0873 57.8986 61.482 58.8396C61.7781 59.5495 61.9919 60.2759 62.14 61.0189C62.2386 61.4811 62.3044 61.9599 62.3373 62.4387C62.3867 63.1981 62.3702 63.9575 62.2715 64.717C62.2386 65.0141 62.1893 65.3113 62.1235 65.6085C61.9755 66.3184 61.7617 67.0118 61.482 67.6887L59.8373 66.4339C59.7221 66.3349 59.6234 66.2358 59.5412 66.1038C59.3274 65.7901 59.2616 65.3939 59.3274 65.0306C59.4918 64.2217 59.5576 63.3962 59.4918 62.5707C59.459 62.2571 59.4261 61.9434 59.3603 61.6297C59.1464 60.5401 58.7352 59.5 58.1267 58.5424C57.6168 57.75 56.9424 57.0236 56.1529 56.4292C55.3634 55.8184 54.4917 55.3726 53.5871 55.092C53.4719 55.0589 53.3403 55.0094 53.2252 54.9764C52.2712 54.7122 51.2844 54.6297 50.2975 54.7122C49.985 54.7288 49.6725 54.7783 49.36 54.8443C48.7349 54.9599 48.1264 55.158 47.5342 55.4222C47.4027 55.4882 47.2546 55.5542 47.123 55.6203C47.0737 55.6368 47.0244 55.6698 46.9915 55.6863C46.6625 55.8349 46.3007 55.8514 45.9552 55.7358C45.8072 55.6863 45.6756 55.6203 45.544 55.5212L43.9322 54.283L43.8828 54.2665Z" fill="#8C1812"/>
<path d="M56.6957 89.316C57.6661 89.283 58.62 89.1179 59.5247 88.8538C59.5905 88.8373 59.6563 88.8208 59.7221 88.7877C60.4458 88.5566 61.153 88.2594 61.8109 87.8962C61.959 87.8137 62.1235 87.7146 62.2715 87.6321C62.5182 87.467 62.7814 87.3019 63.0116 87.1203C63.6202 86.6745 64.1794 86.1627 64.7058 85.6014C65.3966 84.842 65.9887 84 66.4657 83.059C66.8933 82.217 67.2223 81.309 67.4361 80.3514C67.6499 79.3939 67.7322 78.4198 67.6993 77.4788C67.6664 76.4387 67.4855 75.4151 67.1729 74.4245C66.9427 73.6981 66.6466 73.0047 66.2683 72.3278C66.038 71.9151 65.7749 71.5024 65.4953 71.1227C65.0512 70.5118 64.5413 69.934 63.9821 69.4222C63.7518 69.2241 63.5215 69.026 63.2912 68.8278C62.732 68.3821 62.1234 68.0024 61.4655 67.6557L61.0214 69.6698C60.9885 69.8184 60.9885 69.967 61.0214 70.0991C61.0708 70.4788 61.2517 70.8255 61.5478 71.0566C62.2057 71.5684 62.7649 72.1627 63.2419 72.8231C63.4228 73.0873 63.6038 73.3514 63.7518 73.6321C64.2946 74.6061 64.6564 75.6627 64.788 76.7854C64.9031 77.7264 64.8702 78.7005 64.64 79.691C64.4262 80.6651 64.0479 81.5731 63.5544 82.3821C63.4886 82.4977 63.4228 82.5967 63.3406 82.7123C62.7814 83.5377 62.0741 84.2477 61.2846 84.809C61.0214 84.9906 60.7583 85.1722 60.4787 85.3208C59.9194 85.6344 59.3273 85.8821 58.7187 86.0637C58.5707 86.1132 58.4227 86.1462 58.2746 86.1793C58.2253 86.1793 58.176 86.1958 58.1266 86.2123C57.7812 86.3113 57.4851 86.5425 57.3042 86.8396C57.222 86.9717 57.1726 87.1203 57.1233 87.2689L56.6792 89.25L56.6957 89.316Z" fill="#8C1812"/>
<path d="M229.563 57.5684C229.711 58.9717 229.662 60.3585 229.448 61.7123C229.448 61.8113 229.415 61.9104 229.398 62.0094C229.217 63.0991 228.921 64.1557 228.527 65.1627C228.428 65.3939 228.329 65.6415 228.231 65.8726C228.05 66.2689 227.869 66.6651 227.655 67.0448C227.145 68.0024 226.52 68.9104 225.829 69.7524C224.892 70.875 223.79 71.8986 222.556 72.7571C221.438 73.533 220.22 74.1769 218.888 74.6557C217.556 75.1509 216.207 75.4481 214.858 75.5802C213.362 75.7288 211.881 75.6627 210.434 75.4151C209.365 75.217 208.312 74.9363 207.292 74.5401C206.651 74.2924 206.026 73.9953 205.434 73.6651C204.48 73.1533 203.575 72.5259 202.736 71.8325C202.407 71.5519 202.078 71.2547 201.766 70.9575C201.026 70.2311 200.351 69.4387 199.759 68.5637L202.539 67.5401C202.736 67.4741 202.95 67.441 203.164 67.4245C203.707 67.4245 204.25 67.6226 204.628 68.0024C205.483 68.8443 206.437 69.5377 207.473 70.0991C207.868 70.3137 208.296 70.5118 208.707 70.6769C210.187 71.2712 211.766 71.5684 213.395 71.5519C214.76 71.5354 216.141 71.2877 217.49 70.7924C218.839 70.2972 220.056 69.5873 221.092 68.7123C221.24 68.5967 221.372 68.4811 221.503 68.3491C222.556 67.3915 223.444 66.2524 224.102 64.9976C224.316 64.6014 224.513 64.1722 224.678 63.7594C225.023 62.9009 225.253 62.0094 225.402 61.1014C225.434 60.8868 225.467 60.6722 225.484 60.441C225.484 60.3585 225.484 60.2925 225.5 60.2099C225.582 59.6981 225.829 59.2358 226.24 58.9222C226.405 58.7901 226.602 58.6745 226.832 58.592L229.579 57.5849L229.563 57.5684Z" fill="#C19664"/>
<path d="M181.321 18.0778C181.173 16.6745 181.223 15.2877 181.437 13.934C181.437 13.8349 181.469 13.7358 181.486 13.6368C181.683 12.5472 181.963 11.4906 182.358 10.4835C182.456 10.2524 182.555 10.0212 182.654 9.79009C182.835 9.39387 183.016 8.99764 183.229 8.61792C183.739 7.66038 184.364 6.75236 185.055 5.91038C185.993 4.78773 187.095 3.76415 188.328 2.92217C189.447 2.14622 190.664 1.50236 191.996 1.02358C193.328 0.5283 194.677 0.23113 196.026 0.0990545C197.523 -0.0495304 199.003 0.0165073 200.45 0.264149C201.519 0.445753 202.572 0.742922 203.592 1.13915C204.233 1.38679 204.858 1.68396 205.45 2.01415C206.404 2.52594 207.309 3.1533 208.148 3.8467C208.477 4.12736 208.806 4.42453 209.118 4.7217C209.858 5.44811 210.533 6.24056 211.125 7.11556L208.345 8.13915C208.148 8.20519 207.934 8.23821 207.72 8.25471C207.177 8.25471 206.635 8.0566 206.256 7.67689C205.401 6.8349 204.447 6.14151 203.411 5.58019C203.016 5.36556 202.589 5.16745 202.177 5.00236C200.697 4.40802 199.118 4.11085 197.49 4.12736C196.125 4.14387 194.743 4.39151 193.394 4.88679C192.045 5.38207 190.828 6.09198 189.792 6.96698C189.644 7.08255 189.512 7.21462 189.381 7.33019C188.328 8.28773 187.44 9.42688 186.782 10.6816C186.568 11.0778 186.371 11.5071 186.206 11.9198C185.861 12.7783 185.631 13.6698 185.483 14.5778C185.45 14.7925 185.417 15.0071 185.4 15.2382C185.4 15.3042 185.4 15.3868 185.384 15.4693C185.302 15.9811 185.055 16.4434 184.644 16.7736C184.479 16.9057 184.282 17.0212 184.052 17.1038L181.305 18.1108L181.321 18.0778Z" fill="#C19664"/>
<path d="M199.727 68.5142C198.625 69.3892 197.44 70.0991 196.19 70.6439C196.108 70.6769 196.009 70.7264 195.911 70.7594C194.907 71.1887 193.855 71.5024 192.786 71.717C192.539 71.7665 192.292 71.816 192.045 71.8491C191.618 71.9151 191.19 71.9646 190.763 71.9977C189.677 72.0802 188.591 72.0472 187.506 71.9151C186.058 71.7335 184.611 71.3538 183.229 70.7594C181.979 70.2311 180.779 69.5377 179.66 68.6792C178.525 67.8208 177.555 66.8467 176.716 65.7736C175.778 64.5849 175.038 63.2972 174.479 61.9434C174.051 60.9363 173.739 59.8797 173.525 58.8066C173.394 58.1297 173.295 57.4528 173.246 56.7594C173.163 55.6698 173.196 54.5802 173.328 53.4906C173.377 53.0613 173.459 52.6321 173.542 52.2028C173.755 51.1958 174.068 50.1887 174.463 49.2146L176.815 51.0142C176.979 51.1462 177.127 51.3113 177.242 51.4764C177.538 51.9387 177.654 52.5 177.538 53.0283C177.292 54.2005 177.226 55.3892 177.308 56.5613C177.341 57.0236 177.407 57.4694 177.489 57.9151C177.785 59.4835 178.394 60.9859 179.282 62.3561C180.022 63.4953 180.976 64.5354 182.111 65.4104C183.262 66.2854 184.496 66.9293 185.795 67.342C185.976 67.3915 186.141 67.441 186.322 67.5071C187.703 67.8868 189.134 68.0189 190.532 67.9033C190.993 67.8703 191.437 67.8043 191.881 67.7217C192.786 67.5566 193.657 67.276 194.513 66.8962C194.71 66.8137 194.907 66.7146 195.105 66.6156C195.171 66.5826 195.236 66.5495 195.302 66.5165C195.763 66.3019 196.289 66.2854 196.782 66.4505C196.996 66.5165 197.194 66.6321 197.375 66.7642L199.694 68.5307L199.727 68.5142Z" fill="#C19664"/>
<path d="M181.321 18.0778C179.923 18.1273 178.558 18.3585 177.242 18.7547C177.144 18.7877 177.045 18.8042 176.963 18.8373C175.927 19.1674 174.923 19.5967 173.969 20.125C173.755 20.2406 173.525 20.3726 173.311 20.5047C172.949 20.7358 172.588 20.967 172.226 21.2311C171.354 21.875 170.532 22.6014 169.791 23.4104C168.805 24.5 167.949 25.7217 167.275 27.059C166.666 28.2641 166.189 29.5849 165.893 30.9717C165.597 32.3585 165.466 33.7453 165.515 35.099C165.564 36.6014 165.828 38.0707 166.272 39.474C166.601 40.5141 167.028 41.5212 167.555 42.4788C167.884 43.0731 168.262 43.6509 168.657 44.2123C169.298 45.0873 170.022 45.9127 170.828 46.6557C171.157 46.9528 171.486 47.2335 171.831 47.4976C172.637 48.1415 173.525 48.7028 174.463 49.1816L175.104 46.2759C175.137 46.0613 175.153 45.8467 175.137 45.6486C175.071 45.1038 174.792 44.6085 174.364 44.2618C173.426 43.5354 172.604 42.6769 171.913 41.7193C171.65 41.3396 171.403 40.9599 171.173 40.5637C170.4 39.1769 169.874 37.6415 169.676 36.0236C169.512 34.6698 169.561 33.2665 169.874 31.8467C170.186 30.4434 170.729 29.1391 171.436 27.9835C171.535 27.8349 171.634 27.6698 171.732 27.5212C172.538 26.3325 173.542 25.309 174.693 24.5C175.055 24.2358 175.45 23.9882 175.844 23.7571C176.65 23.3113 177.489 22.9481 178.377 22.684C178.591 22.6179 178.805 22.5684 179.019 22.5189C179.085 22.5023 179.167 22.4858 179.233 22.4693C179.726 22.3207 180.154 22.0071 180.417 21.5613C180.532 21.3797 180.614 21.1651 180.664 20.934L181.289 18.0778H181.321Z" fill="#C19664"/>
<path d="M211.125 7.09905C212.227 6.22405 213.411 5.51415 214.661 4.96933C214.744 4.93632 214.842 4.88679 214.941 4.85377C215.944 4.42452 216.997 4.11084 218.066 3.89622C218.313 3.84669 218.559 3.79716 218.806 3.76415C219.234 3.69811 219.661 3.64858 220.089 3.61556C221.175 3.53301 222.26 3.56603 223.346 3.69811C224.793 3.87971 226.241 4.25943 227.622 4.85377C228.872 5.38207 230.073 6.07547 231.191 6.93396C232.31 7.79245 233.297 8.7665 234.136 9.83962C235.073 11.0283 235.813 12.316 236.373 13.6698C236.8 14.6769 237.113 15.7335 237.326 16.8066C237.458 17.4835 237.557 18.1604 237.606 18.8538C237.688 19.9434 237.655 21.033 237.524 22.1226C237.475 22.5519 237.392 22.9811 237.31 23.4104C237.096 24.4174 236.784 25.4245 236.389 26.3986L234.037 24.599C233.872 24.467 233.724 24.3019 233.609 24.1368C233.313 23.6745 233.198 23.1132 233.313 22.5849C233.56 21.4127 233.626 20.224 233.543 19.0519C233.511 18.5896 233.445 18.1439 233.363 17.6981C233.066 16.1297 232.458 14.6274 231.57 13.2571C230.83 12.1179 229.876 11.0778 228.724 10.2028C227.573 9.32782 226.339 8.68396 225.04 8.27122C224.859 8.22169 224.694 8.15565 224.514 8.10613C223.132 7.72641 221.717 7.59433 220.303 7.7099C219.842 7.74292 219.398 7.80896 218.954 7.8915C218.05 8.0566 217.178 8.33726 216.323 8.71698C216.125 8.79952 215.928 8.89858 215.73 8.99764C215.665 9.03065 215.599 9.06367 215.533 9.09669C215.072 9.31132 214.53 9.32782 214.053 9.16273C213.839 9.09669 213.642 8.98113 213.461 8.84905L211.141 7.06603L211.125 7.09905Z" fill="#C19664"/>
<path d="M229.546 57.5354C230.944 57.4859 232.31 57.2547 233.625 56.8585C233.724 56.8255 233.806 56.7925 233.905 56.7759C234.941 56.4458 235.945 56.0165 236.899 55.4882C237.129 55.3726 237.343 55.2406 237.556 55.1085C237.918 54.8774 238.28 54.6297 238.642 54.3821C239.514 53.7382 240.336 53.0118 241.076 52.2028C242.063 51.1132 242.919 49.8915 243.593 48.5543C244.201 47.3491 244.678 46.0283 244.975 44.6415C245.287 43.2547 245.402 41.8679 245.353 40.5142C245.303 39.0118 245.04 37.5425 244.596 36.1392C244.267 35.0991 243.84 34.092 243.313 33.1344C242.984 32.5401 242.606 31.9458 242.211 31.4009C241.57 30.5259 240.846 29.7005 240.04 28.9576C239.728 28.6604 239.382 28.3797 239.037 28.1156C238.231 27.4882 237.343 26.9104 236.405 26.4316L235.764 29.3373C235.731 29.5519 235.714 29.7665 235.747 29.9646C235.813 30.5094 236.093 31.0047 236.52 31.3514C237.458 32.0778 238.28 32.9363 238.971 33.8939C239.234 34.2571 239.481 34.6533 239.711 35.0495C240.484 36.4363 241.011 37.9717 241.208 39.5896C241.372 40.9434 241.323 42.3467 241.011 43.7665C240.698 45.1698 240.155 46.4741 239.448 47.6297C239.349 47.7948 239.251 47.9434 239.152 48.092C238.346 49.2807 237.343 50.3043 236.191 51.1297C235.813 51.3939 235.435 51.6415 235.04 51.8726C234.234 52.3184 233.395 52.6816 232.507 52.9458C232.293 53.0118 232.079 53.0613 231.866 53.1109C231.8 53.1274 231.718 53.1439 231.652 53.1604C231.158 53.309 230.731 53.6226 230.467 54.0684C230.352 54.25 230.27 54.4646 230.221 54.6958L229.596 57.5519L229.546 57.5354Z" fill="#C19664"/>
<path d="M222.194 51.5259C222.293 52.5 222.26 53.4741 222.112 54.4151C222.112 54.4811 222.096 54.5472 222.079 54.6132C221.948 55.3726 221.75 56.0991 221.47 56.809C221.405 56.9741 221.339 57.1392 221.273 57.2877C221.142 57.5684 221.01 57.8325 220.878 58.0967C220.517 58.7571 220.089 59.4009 219.612 59.9788C218.954 60.7712 218.197 61.4646 217.342 62.059C216.569 62.5873 215.714 63.0495 214.793 63.3797C213.872 63.7099 212.934 63.9245 211.997 64.0236C210.96 64.1226 209.924 64.0896 208.921 63.908C208.164 63.7759 207.44 63.5613 206.733 63.2972C206.289 63.1156 205.861 62.9174 205.434 62.7028C204.776 62.3396 204.134 61.9104 203.559 61.4316C203.328 61.2335 203.098 61.0354 202.884 60.8208C202.375 60.309 201.898 59.7642 201.486 59.1533L203.427 58.4434C203.575 58.3939 203.707 58.3774 203.855 58.3608C204.233 58.3608 204.595 58.4929 204.875 58.7571C205.467 59.3349 206.125 59.8302 206.848 60.2099C207.128 60.3585 207.424 60.4906 207.704 60.6061C208.723 61.0189 209.842 61.2335 210.96 61.217C211.898 61.217 212.868 61.0354 213.806 60.6887C214.743 60.342 215.582 59.8467 216.306 59.2524C216.405 59.1698 216.503 59.0873 216.602 59.0047C217.342 58.3278 217.951 57.5519 218.411 56.6769C218.559 56.3962 218.691 56.0991 218.806 55.8184C219.036 55.2241 219.217 54.5967 219.316 53.9693C219.332 53.8208 219.365 53.6722 219.382 53.5236C219.382 53.4741 219.382 53.4245 219.382 53.375C219.431 53.0283 219.612 52.6981 219.892 52.467C220.007 52.3679 220.138 52.2854 220.303 52.2358L222.211 51.5424L222.194 51.5259Z" fill="#8C1812"/>
<path d="M188.657 24.0872C188.558 23.1132 188.591 22.1391 188.739 21.1981C188.739 21.1321 188.756 21.066 188.772 21C188.904 20.2571 189.118 19.5141 189.381 18.8042C189.446 18.6391 189.512 18.474 189.578 18.3255C189.693 18.0448 189.841 17.7806 189.973 17.5165C190.335 16.8561 190.762 16.2122 191.239 15.6344C191.897 14.842 192.654 14.1486 193.509 13.5542C194.282 13.0259 195.137 12.5637 196.059 12.2335C196.98 11.8868 197.917 11.6887 198.855 11.5896C199.891 11.4906 200.927 11.5236 201.93 11.7052C202.671 11.8372 203.411 12.0354 204.118 12.316C204.562 12.4976 204.99 12.6957 205.417 12.9269C206.075 13.2901 206.717 13.7193 207.292 14.1981C207.523 14.3962 207.753 14.5943 207.967 14.8089C208.477 15.3042 208.954 15.8655 209.365 16.4764L207.424 17.1863C207.276 17.2358 207.144 17.2523 206.996 17.2523C206.618 17.2523 206.256 17.1203 205.977 16.8561C205.385 16.2783 204.727 15.783 204.003 15.4033C203.723 15.2547 203.427 15.1226 203.148 15.0071C202.128 14.5943 201.009 14.3797 199.891 14.3962C198.953 14.3962 197.983 14.5778 197.045 14.9245C196.108 15.2712 195.269 15.7665 194.545 16.3608C194.447 16.4434 194.348 16.5259 194.249 16.6085C193.509 17.2854 192.901 18.0613 192.44 18.9363C192.292 19.217 192.16 19.5141 192.045 19.7948C191.815 20.3891 191.634 21.0165 191.535 21.6439C191.502 21.7924 191.486 21.941 191.47 22.0896C191.47 22.1391 191.47 22.1887 191.47 22.2547C191.42 22.6014 191.239 22.9316 190.96 23.1627C190.845 23.2618 190.697 23.3443 190.549 23.3939L188.641 24.0872H188.657Z" fill="#8C1812"/>
<path d="M201.47 59.1368C200.713 59.7476 199.874 60.2429 199.003 60.6227C198.937 60.6557 198.871 60.6722 198.822 60.7052C198.115 61.0024 197.391 61.217 196.651 61.3656C196.486 61.3986 196.305 61.4316 196.124 61.4646C195.828 61.5142 195.532 61.5472 195.236 61.5637C194.48 61.6132 193.723 61.5967 192.966 61.4976C191.963 61.3656 190.96 61.1014 189.989 60.6887C189.118 60.3255 188.295 59.8467 187.506 59.2359C186.716 58.6415 186.042 57.9481 185.45 57.2217C184.808 56.3962 184.282 55.5047 183.887 54.5637C183.591 53.8538 183.377 53.1274 183.229 52.3844C183.131 51.9222 183.065 51.4434 183.032 50.9646C182.982 50.2052 182.999 49.4458 183.098 48.6863C183.131 48.3892 183.18 48.092 183.246 47.7948C183.394 47.0849 183.608 46.3915 183.887 45.7146L185.532 46.9693C185.647 47.0684 185.746 47.1675 185.828 47.283C186.042 47.5967 186.108 47.9929 186.042 48.3561C185.877 49.1651 185.828 49.9906 185.894 50.816C185.91 51.1297 185.96 51.4434 186.025 51.7571C186.239 52.8467 186.65 53.8868 187.275 54.8443C187.785 55.6368 188.46 56.3632 189.249 56.9576C190.039 57.5684 190.91 58.0142 191.815 58.2948C191.93 58.3278 192.062 58.3774 192.177 58.4104C193.131 58.6745 194.134 58.7571 195.105 58.691C195.417 58.6745 195.73 58.625 196.042 58.559C196.667 58.4434 197.276 58.2453 197.868 57.9811C198.016 57.9151 198.147 57.8491 198.279 57.783C198.328 57.7665 198.378 57.7335 198.411 57.717C198.74 57.5684 199.101 57.5519 199.447 57.6675C199.595 57.717 199.726 57.783 199.858 57.8821L201.47 59.1203V59.1368Z" fill="#8C1812"/>
<path d="M188.657 24.0707C187.687 24.1038 186.733 24.2689 185.828 24.533C185.762 24.5495 185.696 24.566 185.631 24.599C184.907 24.8302 184.2 25.1273 183.542 25.5071C183.394 25.5896 183.229 25.6887 183.081 25.7712C182.818 25.9363 182.571 26.1014 182.325 26.283C181.716 26.7288 181.157 27.2406 180.63 27.8019C179.94 28.5613 179.347 29.4033 178.87 30.3443C178.443 31.1863 178.114 32.0943 177.9 33.0519C177.686 34.0094 177.604 34.9835 177.637 35.9245C177.67 36.9646 177.851 37.9882 178.163 38.9788C178.393 39.7052 178.69 40.3986 179.068 41.0755C179.298 41.4882 179.561 41.9009 179.841 42.2806C180.285 42.8915 180.795 43.4693 181.354 43.9811C181.568 44.1792 181.815 44.3773 182.045 44.5755C182.604 45.0212 183.213 45.4009 183.871 45.7476L184.315 43.7335C184.348 43.5849 184.348 43.4363 184.331 43.3042C184.282 42.9245 184.084 42.5778 183.788 42.3467C183.13 41.8349 182.571 41.2406 182.094 40.5802C181.913 40.316 181.732 40.0519 181.584 39.7712C181.042 38.7972 180.68 37.7406 180.548 36.6179C180.433 35.6769 180.466 34.7028 180.696 33.7122C180.91 32.7382 181.288 31.8302 181.782 31.0212C181.848 30.9056 181.913 30.8066 181.996 30.691C182.555 29.8656 183.262 29.1556 184.052 28.5943C184.315 28.4127 184.578 28.2311 184.858 28.0825C185.417 27.7689 186.009 27.5212 186.617 27.3396C186.765 27.2901 186.913 27.2571 187.062 27.224C187.111 27.224 187.16 27.2075 187.21 27.191C187.555 27.092 187.851 26.8773 188.032 26.5637C188.114 26.4316 188.18 26.283 188.213 26.1344L188.657 24.1533V24.0707Z" fill="#8C1812"/>
<path d="M209.381 16.4434C210.154 15.8326 210.977 15.3373 211.849 14.9576C211.914 14.9245 211.98 14.908 212.046 14.875C212.753 14.5778 213.477 14.3632 214.217 14.2146C214.398 14.1816 214.562 14.1486 214.743 14.1156C215.039 14.066 215.335 14.033 215.632 14.0165C216.388 13.967 217.145 13.9835 217.901 14.0826C218.905 14.2146 219.908 14.4788 220.878 14.8915C221.75 15.2547 222.573 15.7335 223.362 16.3443C224.152 16.9387 224.826 17.6156 225.418 18.3585C226.059 19.184 226.586 20.0755 226.981 21.0165C227.277 21.7264 227.49 22.4528 227.638 23.1958C227.737 23.658 227.803 24.1368 227.836 24.6156C227.885 25.375 227.869 26.1344 227.77 26.8939C227.737 27.191 227.688 27.4882 227.622 27.7854C227.474 28.4953 227.26 29.1887 226.981 29.8656L225.336 28.6109C225.221 28.5118 225.122 28.4127 225.04 28.2807C224.826 27.967 224.76 27.5708 224.826 27.2076C224.99 26.3986 225.056 25.5731 224.99 24.7476C224.974 24.434 224.925 24.1203 224.859 23.8066C224.645 22.717 224.234 21.6769 223.625 20.7193C223.115 19.9269 222.441 19.2005 221.651 18.6061C220.862 17.9953 219.99 17.5495 219.086 17.2689C218.97 17.2359 218.839 17.1863 218.724 17.1533C217.77 16.8892 216.783 16.8066 215.796 16.8892C215.484 16.9057 215.171 16.9552 214.858 17.0212C214.233 17.1368 213.625 17.3349 213.033 17.5991C212.901 17.6651 212.753 17.7311 212.622 17.7972C212.572 17.8137 212.523 17.8467 212.49 17.8632C212.161 18.0118 211.799 18.0283 211.454 17.9127C211.306 17.8632 211.174 17.7972 211.043 17.6981L209.431 16.4599L209.381 16.4434Z" fill="#8C1812"/>
<path d="M222.194 51.5094C223.165 51.4764 224.119 51.3113 225.04 51.0472C225.106 51.0307 225.171 51.0142 225.237 50.9811C225.961 50.75 226.652 50.4528 227.326 50.0896C227.474 50.0071 227.639 49.908 227.787 49.8255C228.05 49.6604 228.297 49.4953 228.543 49.3302C229.152 48.8844 229.711 48.3726 230.237 47.8113C230.928 47.0519 231.52 46.2099 231.997 45.2689C232.425 44.4269 232.754 43.5189 232.968 42.5613C233.182 41.6038 233.264 40.6297 233.231 39.6887C233.198 38.6486 233.017 37.625 232.705 36.6509C232.474 35.9245 232.178 35.2311 231.8 34.5542C231.57 34.1415 231.306 33.7288 231.027 33.3491C230.583 32.7382 230.073 32.1604 229.514 31.6486C229.3 31.4505 229.053 31.2524 228.823 31.0542C228.264 30.6085 227.639 30.2288 226.997 29.8821L226.553 31.8962C226.52 32.0448 226.52 32.1934 226.553 32.3255C226.602 32.7052 226.783 33.0519 227.079 33.283C227.737 33.7948 228.296 34.3892 228.773 35.0495C228.954 35.3137 229.135 35.5778 229.283 35.8585C229.826 36.8326 230.188 37.8892 230.32 39.0118C230.435 39.9528 230.402 40.9269 230.172 41.9175C229.958 42.8915 229.579 43.7995 229.086 44.6085C229.02 44.7241 228.954 44.8231 228.872 44.9387C228.313 45.7642 227.606 46.4741 226.816 47.0519C226.553 47.2335 226.29 47.4151 226.01 47.5637C225.451 47.8774 224.859 48.125 224.25 48.3066C224.102 48.3561 223.954 48.3892 223.806 48.4222C223.757 48.4222 223.708 48.4387 223.658 48.4552C223.313 48.5543 223.017 48.7689 222.836 49.0826C222.754 49.2146 222.688 49.3632 222.655 49.5118L222.211 51.4929L222.194 51.5094Z" fill="#8C1812"/>
</g>
<defs>
<clipPath id="clip0_3_424">
<rect width="317" height="238" fill="white"/>
</clipPath>
</defs>
</svg>
